<?xml version="1.0" encoding="UTF-8"?>
<!DOCTYPE svg PUBLIC "-//W3C//DTD SVG 1.1//EN" "http://www.w3.org/Graphics/SVG/1.1/DTD/svg11.dtd">
<svg xmlns="http://www.w3.org/2000/svg" version="1.1" width="1500px" height="600px" style="shape-rendering:geometricPrecision; text-rendering:geometricPrecision; image-rendering:optimizeQuality; fill-rule:evenodd; clip-rule:evenodd" xmlns:xlink="http://www.w3.org/1999/xlink">
<g><path style="opacity:0.768" fill="#1fa3f5" d="M 249.5,46.5 C 249.5,49.1667 249.5,51.8333 249.5,54.5C 247.846,56.5597 246.846,59.0597 246.5,62C 164.834,62.5 83.1673,62.6667 1.5,62.5C 1.19767,59.6275 0.531006,56.9608 -0.5,54.5C -0.5,51.8333 -0.5,49.1667 -0.5,46.5C 0.468218,44.3926 0.801552,42.0593 0.5,39.5C 82.8333,39.5 165.167,39.5 247.5,39.5C 246.99,42.3878 247.656,44.7211 249.5,46.5 Z"/></g>
<g><path style="opacity:1" fill="#131c22" d="M 63.5,42.5 C 64.5,42.5 65.5,42.5 66.5,42.5C 66.5,43.5 66.5,44.5 66.5,45.5C 74.5,46.1667 74.5,46.8333 66.5,47.5C 66.5,49.5 66.5,51.5 66.5,53.5C 68.604,53.2011 70.604,53.5344 72.5,54.5C 69.6286,57.113 66.7953,57.113 64,54.5C 63.8999,51.5628 63.0666,48.8961 61.5,46.5C 62.8532,45.4763 63.5198,44.143 63.5,42.5 Z"/></g>
<g><path style="opacity:1" fill="#101517" d="M 137.5,42.5 C 139.048,42.8212 139.715,43.8212 139.5,45.5C 148.833,46.1667 148.833,46.8333 139.5,47.5C 139.5,49.5 139.5,51.5 139.5,53.5C 141.924,53.1924 144.257,53.5258 146.5,54.5C 143.748,57.1345 140.915,57.1345 138,54.5C 137.503,52.1902 137.337,49.8568 137.5,47.5C 134.635,47.0548 132.135,47.7215 130,49.5C 129.316,51.4789 129.816,53.1456 131.5,54.5C 129.5,55.8333 127.5,55.8333 125.5,54.5C 128.167,51.8333 128.167,49.1667 125.5,46.5C 129.445,45.5091 133.445,45.1758 137.5,45.5C 137.5,44.5 137.5,43.5 137.5,42.5 Z"/></g>
<g><path style="opacity:1" fill="#12171b" d="M 234.5,42.5 C 236.048,42.8212 236.715,43.8212 236.5,45.5C 245.833,46.1667 245.833,46.8333 236.5,47.5C 236.5,49.5 236.5,51.5 236.5,53.5C 238.924,53.1924 241.257,53.5258 243.5,54.5C 240.748,57.1345 237.915,57.1345 235,54.5C 234.503,52.1902 234.337,49.8568 234.5,47.5C 230.5,46.8333 230.5,46.1667 234.5,45.5C 234.5,44.5 234.5,43.5 234.5,42.5 Z"/></g>
<g><path style="opacity:1" fill="#131b22" d="M 7.5,45.5 C 14.5079,45.3337 21.5079,45.5004 28.5,46C 32.7287,49.8432 32.3954,53.1765 27.5,56C 25.5,56.3333 23.5,56.6667 21.5,57C 22.3081,57.3076 22.9747,57.8076 23.5,58.5C 21.1667,59.8333 18.8333,59.8333 16.5,58.5C 18.6323,55.3862 18.9656,52.0528 17.5,48.5C 16.6919,48.8076 16.0253,49.3076 15.5,50C 16.4061,51.6995 16.7394,53.5328 16.5,55.5C 13.1667,55.5 9.83333,55.5 6.5,55.5C 6.34332,54.1266 6.50999,52.7932 7,51.5C 9.06788,54.6454 11.5679,55.1454 14.5,53C 12.3213,51.8581 9.98795,51.0248 7.5,50.5C 6.33363,48.8327 6.33363,47.166 7.5,45.5 Z"/></g>
<g><path style="opacity:1" fill="#131d24" d="M 162.5,41.5 C 163.995,41.4148 164.995,42.0815 165.5,43.5C 164.583,46.7577 164.249,50.091 164.5,53.5C 165.833,53.5 167.167,53.5 168.5,53.5C 168.84,50.8559 168.173,48.5225 166.5,46.5C 170.715,45.2023 174.882,45.2023 179,46.5C 179.497,48.8098 179.663,51.1432 179.5,53.5C 180.833,53.5 182.167,53.5 183.5,53.5C 183.84,50.8559 183.173,48.5225 181.5,46.5C 187.195,45.873 192.862,45.5397 198.5,45.5C 199.772,45.5698 200.938,45.9032 202,46.5C 202.447,49.9752 203.28,53.3085 204.5,56.5C 202.167,56.5 199.833,56.5 197.5,56.5C 198.776,53.6644 199.442,50.6644 199.5,47.5C 196.756,47.2003 195.089,48.367 194.5,51C 195.378,52.8001 196.045,54.6334 196.5,56.5C 194.167,56.5 191.833,56.5 189.5,56.5C 190.776,53.6644 191.442,50.6644 191.5,47.5C 189.856,47.2865 188.356,47.6198 187,48.5C 186.688,51.3088 187.188,53.9755 188.5,56.5C 184.167,56.5 179.833,56.5 175.5,56.5C 175.955,54.6334 176.622,52.8001 177.5,51C 177.166,47.6077 175.5,46.7743 172.5,48.5C 172.167,49.3333 171.833,50.1667 171.5,51C 172.378,52.8001 173.045,54.6334 173.5,56.5C 165.14,56.8312 156.807,56.4979 148.5,55.5C 147.319,53.802 147.319,52.1353 148.5,50.5C 157.623,47.8632 157.289,47.0299 147.5,48C 150.864,44.9001 154.364,44.7335 158,47.5C 158.495,49.4727 158.662,51.4727 158.5,53.5C 159.833,53.5 161.167,53.5 162.5,53.5C 162.84,50.8559 162.173,48.5225 160.5,46.5C 161.025,45.8076 161.692,45.3076 162.5,45C 161.316,43.8545 161.316,42.6879 162.5,41.5 Z"/></g>
<g><path style="opacity:1" fill="#131c23" d="M 217.5,45.5 C 221.514,45.3345 225.514,45.5012 229.5,46C 230.326,49.5573 231.326,53.0573 232.5,56.5C 230.167,56.5 227.833,56.5 225.5,56.5C 226.776,53.6644 227.442,50.6644 227.5,47.5C 221.787,47.4651 220.453,49.7984 223.5,54.5C 221.5,55.8333 219.5,55.8333 217.5,54.5C 218.544,53.3774 219.21,52.0441 219.5,50.5C 219.014,48.6958 218.347,47.0291 217.5,45.5 Z"/></g>
<g><path style="opacity:0.792" fill="#1b88cb" d="M 8.5,48.5 C 10.0348,47.2121 11.7015,47.2121 13.5,48.5C 11.8327,49.6664 10.166,49.6664 8.5,48.5 Z"/></g>
<g><path style="opacity:1" fill="#172632" d="M 115.5,45.5 C 123.489,44.3173 126.156,47.4839 123.5,55C 117.818,58.0703 114.152,56.5703 112.5,50.5C 113.092,48.5775 114.092,46.9108 115.5,45.5 Z"/></g>
<g><path style="opacity:1" fill="#172632" d="M 207.5,45.5 C 215.489,44.3173 218.156,47.4839 215.5,55C 209.818,58.0703 206.152,56.5703 204.5,50.5C 205.092,48.5775 206.092,46.9108 207.5,45.5 Z"/></g>
<g><path style="opacity:0.78" fill="#1ea1f2" d="M 22.5,47.5 C 27.6673,46.4919 29.334,48.3252 27.5,53C 25.5273,53.4955 23.5273,53.6621 21.5,53.5C 21.3253,51.3792 21.6586,49.3792 22.5,47.5 Z"/></g>
<g><path style="opacity:1" fill="#15222c" d="M 76.5,45.5 C 79.6021,45.154 82.4355,45.8207 85,47.5C 85.6739,46.4216 86.6739,45.7549 88,45.5C 91.027,45.7748 94.1937,45.9415 97.5,46C 99.1198,49.3549 100.453,52.8549 101.5,56.5C 99.1667,56.5 96.8333,56.5 94.5,56.5C 95.7755,53.6644 96.4422,50.6644 96.5,47.5C 90.7867,47.4651 89.4534,49.7984 92.5,54.5C 90.5,55.8333 88.5,55.8333 86.5,54.5C 87.7059,52.4841 87.7059,50.4841 86.5,48.5C 85.7078,50.4648 85.0412,52.4648 84.5,54.5C 77.378,58.5221 73.878,56.5221 74,48.5C 74.6979,47.3094 75.5313,46.3094 76.5,45.5 Z"/></g>
<g><path style="opacity:0.78" fill="#1c94df" d="M 77.5,47.5 C 79.4286,47.2308 81.0953,47.7308 82.5,49C 80.5,49.6667 78.5,49.6667 76.5,49C 77.056,48.6174 77.3893,48.1174 77.5,47.5 Z"/></g>
<g><path style="opacity:1" fill="#131b21" d="M 31.5,45.5 C 33.1667,45.5 34.8333,45.5 36.5,45.5C 36.5,48.1667 36.5,50.8333 36.5,53.5C 41.5,54.5 43.5,52.5 42.5,47.5C 41.325,47.719 40.325,47.3857 39.5,46.5C 41.0453,45.5481 42.712,45.2148 44.5,45.5C 44.5,48.1667 44.5,50.8333 44.5,53.5C 45.8333,53.5 47.1667,53.5 48.5,53.5C 48.8399,50.8559 48.1733,48.5225 46.5,46.5C 50.4589,45.3401 54.4589,45.1735 58.5,46C 58.9813,49.0185 59.9813,51.8518 61.5,54.5C 59.5,55.8333 57.5,55.8333 55.5,54.5C 58.2459,51.7852 58.0792,49.4519 55,47.5C 52.836,47.6659 51.6694,48.8326 51.5,51C 52.3784,52.8001 53.045,54.6334 53.5,56.5C 47.3923,56.2256 41.3923,56.059 35.5,56C 34.0854,52.5564 32.7521,49.0564 31.5,45.5 Z"/></g>
<g><path style="opacity:0.78" fill="#1d8fd6" d="M 150.5,51.5 C 155.96,51.4606 156.46,52.4606 152,54.5C 149.72,54.1058 149.22,53.1058 150.5,51.5 Z"/></g>
<g><path style="opacity:1" fill="#14202a" d="M 102.5,42.5 C 103.5,42.5 104.5,42.5 105.5,42.5C 105.5,43.5 105.5,44.5 105.5,45.5C 113.5,46.1667 113.5,46.8333 105.5,47.5C 105.5,49.5 105.5,51.5 105.5,53.5C 107.924,53.1924 110.257,53.5258 112.5,54.5C 111.473,56.024 109.973,56.6906 108,56.5C 105.966,56.6464 104.299,55.9797 103,54.5C 102.764,51.7916 101.931,49.2916 100.5,47C 101.707,45.6998 102.374,44.1998 102.5,42.5 Z"/></g>
</svg>
