<svg id="svg" version="1.1" xmlns="http://www.w3.org/2000/svg" xmlns:xlink="http://www.w3.org/1999/xlink" width="400" height="150" viewBox="0, 0, 400,150"><g id="svgg"><path id="path0" d="M0.204 78.473 C 0.043 78.576,0.003 79.300,0.038 81.512 L 0.083 84.417 199.708 84.458 L 399.333 84.500 399.333 81.417 L 399.333 78.333 199.875 78.336 C 90.173 78.337,0.321 78.399,0.204 78.473 " stroke="none" fill="#430c53" fill-rule="evenodd"></path><path id="path1" d="M0.000 6.000 L 0.000 12.000 200.000 12.000 L 400.000 12.000 400.000 6.000 L 400.000 0.000 200.000 0.000 L 0.000 0.000 0.000 6.000 M204.139 12.832 C 204.108 12.923,203.502 13.047,202.792 13.107 C 202.081 13.167,201.500 13.280,201.500 13.358 C 201.500 13.436,201.313 13.500,201.083 13.500 C 200.854 13.500,200.667 13.569,200.667 13.653 C 200.667 13.738,200.423 13.859,200.125 13.922 C 197.913 14.391,195.960 17.447,195.505 21.152 C 195.275 23.032,195.271 58.160,195.501 59.946 C 195.838 62.555,196.851 64.884,198.062 65.833 C 198.238 65.971,198.555 66.245,198.767 66.443 C 198.979 66.642,199.380 66.854,199.659 66.915 C 199.938 66.976,200.167 67.077,200.167 67.139 C 200.167 67.294,200.931 67.594,201.833 67.794 C 202.335 67.905,169.014 67.967,101.292 67.980 L 0.000 68.000 0.000 73.000 L 0.000 78.000 199.750 78.000 L 399.500 78.000 399.500 81.500 L 399.500 85.000 199.750 85.000 L 0.000 85.000 0.000 90.083 L 0.000 95.167 200.000 95.167 L 400.000 95.167 400.000 81.584 L 400.000 68.001 349.875 67.959 C 319.969 67.934,300.153 67.857,300.750 67.769 C 301.300 67.688,301.787 67.575,301.833 67.519 C 302.003 67.310,302.977 66.833,303.234 66.833 C 303.380 66.833,303.500 66.758,303.500 66.667 C 303.500 66.575,303.581 66.500,303.680 66.500 C 303.945 66.500,305.109 65.277,305.242 64.860 C 305.304 64.662,305.426 64.500,305.511 64.500 C 305.597 64.500,305.667 64.387,305.667 64.250 C 305.667 64.112,305.733 64.000,305.815 64.000 C 305.896 64.000,306.012 63.737,306.072 63.417 C 306.133 63.096,306.253 62.833,306.341 62.833 C 306.428 62.833,306.500 62.540,306.500 62.181 C 306.500 61.806,306.589 61.498,306.708 61.458 C 306.874 61.403,306.917 57.080,306.917 40.583 C 306.917 24.087,306.874 19.763,306.708 19.708 C 306.590 19.669,306.500 19.364,306.500 19.007 C 306.500 18.648,306.392 18.284,306.250 18.167 C 306.112 18.053,306.000 17.781,306.000 17.563 C 306.000 17.345,305.925 17.167,305.833 17.167 C 305.742 17.167,305.667 17.025,305.667 16.851 C 305.667 16.678,305.554 16.492,305.417 16.440 C 305.279 16.387,305.167 16.196,305.167 16.016 C 305.167 15.836,305.021 15.643,304.842 15.586 C 304.663 15.529,304.471 15.337,304.414 15.158 C 304.357 14.979,304.176 14.833,304.012 14.833 C 303.848 14.833,303.573 14.646,303.400 14.417 C 303.228 14.188,302.948 14.000,302.778 14.000 C 302.607 14.000,302.269 13.897,302.026 13.770 C 301.123 13.302,300.723 13.190,299.583 13.087 C 298.942 13.030,298.345 12.911,298.258 12.825 C 298.043 12.609,294.167 12.618,294.167 12.833 C 294.167 12.925,294.024 13.000,293.850 13.000 C 293.331 13.000,293.167 13.859,293.167 16.579 C 293.167 19.722,293.233 19.833,295.126 19.833 C 295.779 19.833,296.360 19.908,296.417 20.000 C 296.473 20.092,296.693 20.167,296.904 20.167 C 297.392 20.167,298.167 20.767,298.167 21.145 C 298.167 21.304,298.260 21.527,298.375 21.642 C 298.757 22.024,298.670 58.699,298.285 59.668 C 297.869 60.713,297.309 61.000,295.686 61.000 C 293.305 61.000,293.167 61.211,293.167 64.832 C 293.167 67.381,293.181 67.491,293.537 67.741 C 293.873 67.976,289.903 67.999,251.245 67.987 C 227.781 67.980,208.677 67.936,208.792 67.890 C 208.948 67.826,209.000 67.014,209.000 64.629 C 209.000 60.837,209.099 61.013,206.972 61.005 C 205.367 60.999,204.564 60.699,204.394 60.042 C 204.341 59.835,204.230 59.667,204.149 59.667 C 204.067 59.667,204.000 59.179,204.000 58.583 C 204.000 57.972,203.927 57.500,203.833 57.500 C 203.723 57.500,203.667 51.726,203.667 40.510 C 203.667 29.363,203.724 23.484,203.833 23.417 C 203.925 23.360,204.000 22.940,204.000 22.484 C 204.000 21.299,204.786 20.167,205.609 20.167 C 205.824 20.167,206.000 20.095,206.000 20.006 C 206.000 19.918,206.656 19.825,207.458 19.798 L 208.917 19.750 208.960 16.417 L 209.003 13.083 208.552 12.875 C 208.003 12.622,204.222 12.585,204.139 12.832 M13.667 15.833 C 13.529 15.922,13.248 15.996,13.042 15.997 C 12.835 15.999,12.667 16.075,12.667 16.167 C 12.667 16.258,12.490 16.333,12.273 16.333 C 11.290 16.333,7.667 18.938,7.667 19.645 C 7.667 19.749,7.610 19.834,7.542 19.834 C 7.374 19.836,6.833 20.799,6.833 21.097 C 6.833 21.227,6.762 21.333,6.674 21.333 C 6.587 21.333,6.466 21.596,6.406 21.917 C 6.345 22.238,6.230 22.500,6.148 22.500 C 6.067 22.500,6.000 22.655,6.000 22.844 C 6.000 23.033,5.882 23.548,5.738 23.989 C 5.402 25.017,5.446 31.681,5.792 32.025 C 5.906 32.140,6.000 32.481,6.000 32.783 C 6.000 33.086,6.075 33.333,6.167 33.333 C 6.258 33.333,6.333 33.460,6.333 33.615 C 6.333 33.932,7.349 36.053,7.542 36.139 C 7.610 36.169,7.667 36.268,7.667 36.358 C 7.667 36.448,7.873 36.798,8.125 37.136 C 8.571 37.733,8.692 37.886,9.125 38.404 C 9.240 38.541,9.333 38.695,9.333 38.747 C 9.333 39.105,14.453 44.055,15.179 44.399 C 15.351 44.481,15.536 44.683,15.588 44.849 C 15.641 45.014,15.830 45.196,16.009 45.253 C 16.187 45.309,16.333 45.414,16.333 45.486 C 16.333 45.557,16.488 45.796,16.677 46.016 C 16.866 46.236,17.148 46.567,17.305 46.750 C 17.951 47.505,19.000 49.069,19.000 49.277 C 19.000 49.400,19.075 49.500,19.167 49.500 C 19.258 49.500,19.333 49.604,19.333 49.731 C 19.333 49.858,19.445 50.177,19.582 50.439 C 19.719 50.702,19.832 51.231,19.832 51.615 C 19.833 51.999,19.908 52.360,20.000 52.417 C 20.204 52.543,20.224 54.445,20.022 54.570 C 19.943 54.619,19.837 55.015,19.788 55.449 C 19.740 55.884,19.617 56.267,19.516 56.300 C 19.416 56.334,19.333 56.442,19.333 56.541 C 19.333 56.914,18.277 57.667,17.753 57.667 C 17.467 57.667,17.143 57.757,17.033 57.867 C 16.878 58.022,16.789 58.022,16.633 57.867 C 16.523 57.757,16.120 57.667,15.737 57.667 C 14.594 57.667,13.627 56.638,13.531 55.320 C 13.492 54.774,13.394 54.287,13.313 54.238 C 13.233 54.188,13.167 53.359,13.167 52.395 C 13.167 51.099,13.105 50.581,12.929 50.405 C 12.610 50.087,5.682 50.052,5.367 50.367 C 5.114 50.619,5.083 55.595,5.333 55.750 C 5.425 55.807,5.500 56.280,5.501 56.802 C 5.502 57.323,5.614 57.965,5.751 58.227 C 5.888 58.490,6.000 58.842,6.000 59.009 C 6.000 59.177,6.067 59.355,6.148 59.405 C 6.230 59.456,6.345 59.691,6.405 59.929 C 6.518 60.378,7.324 61.709,7.542 61.806 C 7.610 61.836,7.667 61.930,7.667 62.014 C 7.667 62.206,8.950 63.500,9.141 63.500 C 9.218 63.500,9.499 63.689,9.766 63.921 C 10.032 64.153,10.438 64.388,10.667 64.445 C 10.896 64.502,11.271 64.679,11.500 64.837 C 11.729 64.996,12.310 65.180,12.791 65.245 C 13.273 65.311,13.708 65.433,13.760 65.516 C 13.880 65.711,19.618 65.714,19.738 65.519 C 19.788 65.438,20.186 65.321,20.623 65.258 C 21.480 65.136,22.333 64.824,22.333 64.634 C 22.333 64.568,22.596 64.466,22.917 64.406 C 23.238 64.345,23.500 64.230,23.500 64.148 C 23.500 64.067,23.613 64.000,23.750 64.000 C 23.887 64.000,24.000 63.930,24.000 63.845 C 24.000 63.759,24.144 63.643,24.321 63.587 C 24.737 63.455,25.955 62.237,26.087 61.821 C 26.143 61.644,26.259 61.500,26.345 61.500 C 26.430 61.500,26.500 61.394,26.500 61.264 C 26.500 61.134,26.556 61.003,26.625 60.972 C 26.806 60.892,27.333 59.848,27.333 59.570 C 27.333 59.440,27.400 59.333,27.481 59.333 C 27.562 59.333,27.679 58.998,27.741 58.587 C 27.802 58.177,27.923 57.797,28.010 57.744 C 28.096 57.691,28.167 57.356,28.167 57.000 C 28.167 56.644,28.242 56.307,28.333 56.250 C 28.560 56.110,28.560 49.667,28.333 49.667 C 28.242 49.667,28.167 49.367,28.167 49.000 C 28.167 48.633,28.101 48.333,28.021 48.333 C 27.941 48.333,27.826 48.015,27.765 47.625 C 27.641 46.837,27.316 46.000,27.134 46.000 C 27.068 46.000,26.967 45.744,26.908 45.431 C 26.850 45.118,26.668 44.719,26.505 44.543 C 26.341 44.368,26.161 44.080,26.105 43.904 C 26.048 43.728,25.814 43.365,25.584 43.099 C 25.355 42.833,25.167 42.548,25.167 42.466 C 25.167 42.260,18.908 36.000,18.702 36.000 C 18.611 36.000,18.492 35.887,18.440 35.750 C 18.387 35.612,18.241 35.500,18.115 35.500 C 17.990 35.500,17.801 35.313,17.697 35.083 C 17.593 34.854,17.393 34.667,17.254 34.667 C 17.114 34.667,17.000 34.543,17.000 34.392 C 17.000 34.241,16.625 33.757,16.167 33.318 C 15.708 32.878,15.333 32.478,15.333 32.427 C 15.333 32.200,14.741 31.000,14.629 31.000 C 14.560 31.000,14.456 30.698,14.397 30.330 C 14.338 29.961,14.224 29.619,14.145 29.570 C 14.065 29.521,14.000 29.302,14.000 29.083 C 14.000 28.865,13.925 28.640,13.833 28.583 C 13.624 28.454,13.614 26.596,13.819 26.206 C 14.069 25.733,14.500 24.708,14.500 24.588 C 14.500 24.417,14.955 24.000,15.141 24.000 C 15.231 24.000,15.337 23.906,15.375 23.792 C 15.424 23.644,15.911 23.583,17.038 23.583 L 18.631 23.583 19.232 24.220 C 19.563 24.570,19.833 24.997,19.833 25.169 C 19.833 25.340,19.908 25.527,20.000 25.583 C 20.096 25.643,20.169 26.549,20.172 27.718 C 20.179 30.551,19.827 30.333,24.393 30.333 L 28.167 30.333 28.167 27.343 C 28.167 25.680,28.098 24.311,28.012 24.257 C 27.926 24.205,27.805 23.750,27.742 23.247 C 27.680 22.745,27.562 22.333,27.481 22.333 C 27.400 22.333,27.333 22.146,27.333 21.917 C 27.333 21.688,27.270 21.500,27.193 21.500 C 27.116 21.500,26.967 21.212,26.861 20.861 C 26.756 20.509,26.519 20.047,26.335 19.835 C 26.151 19.623,26.000 19.353,26.000 19.236 C 26.000 19.118,25.854 18.976,25.675 18.919 C 25.497 18.863,25.304 18.670,25.247 18.491 C 25.191 18.313,25.086 18.167,25.015 18.167 C 24.943 18.167,24.667 17.979,24.401 17.749 C 24.135 17.519,23.785 17.289,23.625 17.238 C 23.465 17.186,23.333 17.074,23.333 16.989 C 23.333 16.903,23.221 16.833,23.083 16.833 C 22.946 16.833,22.833 16.767,22.833 16.686 C 22.833 16.604,22.498 16.487,22.087 16.426 C 21.677 16.364,21.297 16.243,21.244 16.157 C 21.191 16.071,20.968 16.000,20.750 16.000 C 20.532 16.000,20.307 15.925,20.250 15.833 C 20.115 15.615,14.004 15.615,13.667 15.833 M249.083 15.833 C 249.027 15.925,248.760 16.000,248.490 16.000 C 248.221 16.000,248.000 16.070,248.000 16.156 C 248.000 16.243,247.662 16.364,247.250 16.425 C 246.838 16.487,246.500 16.604,246.500 16.686 C 246.500 16.767,246.387 16.833,246.250 16.833 C 246.112 16.833,246.000 16.908,246.000 17.000 C 246.000 17.092,245.898 17.167,245.773 17.167 C 245.578 17.167,244.504 17.899,244.126 18.289 C 242.775 19.684,241.333 22.062,241.333 22.893 C 241.333 23.105,241.278 23.333,241.211 23.400 C 240.228 24.383,240.170 56.647,241.149 57.906 C 241.224 58.004,241.333 58.329,241.390 58.628 C 241.511 59.267,242.266 60.860,242.650 61.287 C 242.796 61.450,243.121 61.857,243.370 62.190 C 243.619 62.524,244.219 63.085,244.703 63.437 C 245.187 63.790,245.608 64.133,245.637 64.200 C 245.667 64.268,245.948 64.371,246.262 64.430 C 246.576 64.489,246.833 64.604,246.833 64.685 C 246.833 64.767,246.979 64.833,247.157 64.833 C 247.335 64.833,247.521 64.898,247.570 64.978 C 247.619 65.058,248.033 65.172,248.489 65.233 C 248.946 65.293,249.365 65.416,249.420 65.505 C 249.552 65.719,255.333 65.722,255.333 65.508 C 255.333 65.421,255.783 65.299,256.333 65.237 C 256.883 65.175,257.333 65.058,257.333 64.978 C 257.333 64.899,257.446 64.833,257.583 64.833 C 257.721 64.833,257.833 64.767,257.833 64.685 C 257.833 64.604,258.077 64.491,258.375 64.435 C 258.673 64.379,259.135 64.146,259.401 63.917 C 259.667 63.687,259.949 63.500,260.027 63.500 C 260.281 63.500,261.167 62.555,261.167 62.285 C 261.167 62.141,261.299 61.980,261.462 61.929 C 261.624 61.877,261.898 61.572,262.071 61.251 C 262.244 60.930,262.446 60.667,262.519 60.667 C 262.592 60.667,262.701 60.404,262.761 60.083 C 262.821 59.763,262.922 59.500,262.985 59.500 C 263.178 59.500,263.520 58.374,263.620 57.407 C 263.672 56.903,263.779 56.450,263.857 56.402 C 263.936 56.353,264.000 56.098,264.000 55.833 C 264.000 55.569,264.075 55.307,264.167 55.250 C 264.276 55.183,264.333 50.140,264.333 40.667 C 264.333 31.193,264.276 26.151,264.167 26.083 C 264.075 26.027,264.000 25.722,264.000 25.407 C 264.000 25.091,263.936 24.833,263.857 24.833 C 263.778 24.833,263.666 24.368,263.606 23.800 C 263.497 22.759,263.193 21.833,262.959 21.833 C 262.890 21.833,262.833 21.651,262.833 21.429 C 262.833 21.206,262.721 20.911,262.583 20.774 C 262.446 20.636,262.333 20.443,262.333 20.345 C 262.333 20.247,262.258 20.167,262.167 20.167 C 262.075 20.167,262.000 20.063,262.000 19.937 C 262.000 19.460,259.520 17.172,258.998 17.168 C 258.860 17.167,258.656 17.022,258.546 16.844 C 258.418 16.641,258.067 16.480,257.589 16.409 C 257.173 16.346,256.833 16.229,256.833 16.148 C 256.833 16.066,256.613 16.000,256.343 16.000 C 256.074 16.000,255.807 15.925,255.750 15.833 C 255.687 15.731,254.390 15.667,252.417 15.667 C 250.443 15.667,249.146 15.731,249.083 15.833 M320.417 15.833 C 320.360 15.925,320.135 16.000,319.917 16.000 C 319.698 16.000,319.479 16.066,319.428 16.148 C 319.378 16.229,319.069 16.346,318.740 16.407 C 316.815 16.769,313.173 20.236,313.166 21.714 C 313.165 21.826,313.069 22.104,312.952 22.333 C 312.089 24.025,312.000 25.737,312.001 40.695 C 312.003 55.580,312.073 56.953,312.938 58.942 C 313.064 59.231,313.167 59.549,313.167 59.648 C 313.167 60.035,314.658 62.120,315.445 62.833 C 316.751 64.017,317.205 64.301,318.542 64.770 C 318.702 64.826,318.833 64.929,318.833 64.998 C 318.833 65.067,319.205 65.173,319.660 65.233 C 320.114 65.294,320.531 65.416,320.586 65.505 C 320.713 65.709,326.500 65.723,326.500 65.519 C 326.500 65.438,326.856 65.320,327.292 65.258 C 328.147 65.136,329.000 64.824,329.000 64.634 C 329.000 64.568,329.262 64.466,329.583 64.406 C 329.904 64.345,330.167 64.230,330.167 64.148 C 330.167 64.067,330.252 64.000,330.357 64.000 C 330.907 64.000,333.667 60.747,333.667 60.099 C 333.667 59.953,333.742 59.833,333.833 59.833 C 333.925 59.833,334.000 59.652,334.000 59.431 C 334.000 59.209,334.082 59.000,334.183 58.967 C 334.284 58.933,334.406 58.552,334.455 58.120 C 334.503 57.687,334.609 57.333,334.688 57.333 C 334.768 57.333,334.833 54.857,334.833 51.830 L 334.833 46.327 331.042 46.372 L 327.250 46.417 327.207 50.750 L 327.165 55.083 326.661 56.142 C 326.353 56.790,326.030 57.233,325.829 57.286 C 325.648 57.334,325.500 57.438,325.500 57.519 C 325.500 57.810,322.525 57.690,322.036 57.379 C 321.447 57.006,321.000 56.507,321.000 56.224 C 321.000 56.101,320.925 56.000,320.833 56.000 C 320.741 56.000,320.667 55.559,320.667 55.010 C 320.667 54.465,320.592 53.973,320.500 53.917 C 320.391 53.849,320.333 49.224,320.333 40.583 C 320.333 31.943,320.391 27.317,320.500 27.250 C 320.592 27.193,320.667 26.745,320.667 26.254 C 320.667 25.763,320.723 25.336,320.792 25.306 C 320.860 25.275,321.060 24.969,321.235 24.625 C 321.409 24.281,321.647 24.000,321.762 24.000 C 321.878 24.000,322.001 23.912,322.037 23.805 C 322.171 23.403,324.904 23.414,325.559 23.818 C 326.168 24.195,326.833 25.147,326.833 25.643 C 326.833 25.803,326.907 26.007,326.996 26.096 C 327.089 26.189,327.179 27.734,327.205 29.671 L 327.250 33.083 331.042 33.128 L 334.833 33.173 334.833 28.596 C 334.833 26.079,334.768 23.979,334.689 23.930 C 334.609 23.881,334.504 23.485,334.455 23.051 C 334.406 22.616,334.284 22.233,334.183 22.200 C 334.082 22.166,334.000 21.958,334.000 21.736 C 334.000 21.515,333.925 21.333,333.833 21.333 C 333.742 21.333,333.667 21.181,333.667 20.995 C 333.667 20.809,333.554 20.613,333.417 20.560 C 333.279 20.508,333.167 20.360,333.167 20.233 C 333.167 19.784,330.927 17.438,330.310 17.243 C 330.108 17.178,329.794 16.988,329.613 16.819 C 329.433 16.651,328.958 16.464,328.559 16.404 C 328.160 16.344,327.833 16.229,327.833 16.148 C 327.833 16.066,327.650 16.000,327.427 16.000 C 327.203 16.000,326.973 15.925,326.917 15.833 C 326.854 15.732,325.585 15.667,323.667 15.667 C 321.748 15.667,320.479 15.732,320.417 15.833 M346.750 15.833 C 346.693 15.925,346.510 16.000,346.343 16.000 C 346.175 16.000,345.823 16.112,345.561 16.249 C 345.298 16.386,344.929 16.498,344.740 16.499 C 344.551 16.500,344.235 16.650,344.038 16.833 C 343.842 17.017,343.584 17.169,343.465 17.171 C 342.719 17.185,340.017 20.126,339.742 21.224 C 339.680 21.468,339.574 21.667,339.505 21.667 C 339.436 21.667,339.250 22.098,339.093 22.625 C 338.935 23.152,338.743 23.771,338.666 24.000 C 338.320 25.018,338.272 27.082,338.274 40.667 C 338.276 55.081,338.321 56.625,338.764 57.609 C 338.894 57.897,339.000 58.257,339.000 58.408 C 339.000 58.559,339.188 59.034,339.417 59.465 C 339.646 59.895,339.833 60.323,339.834 60.415 C 339.834 60.508,340.021 60.801,340.250 61.068 C 340.479 61.334,340.667 61.600,340.667 61.660 C 340.667 61.813,342.337 63.500,342.489 63.500 C 342.558 63.500,342.833 63.687,343.099 63.916 C 343.365 64.146,343.644 64.333,343.719 64.333 C 343.794 64.333,344.251 64.514,344.735 64.736 C 345.219 64.957,345.964 65.191,346.391 65.255 C 346.818 65.319,347.167 65.438,347.167 65.519 C 347.167 65.712,352.952 65.712,353.071 65.519 C 353.122 65.438,353.520 65.321,353.956 65.258 C 354.814 65.136,355.667 64.824,355.667 64.634 C 355.667 64.568,355.929 64.466,356.250 64.406 C 356.571 64.345,356.833 64.230,356.833 64.148 C 356.833 64.067,356.946 64.000,357.083 64.000 C 357.221 64.000,357.333 63.941,357.333 63.869 C 357.333 63.797,357.577 63.595,357.875 63.419 C 358.424 63.095,358.984 62.527,358.994 62.284 C 358.998 62.211,359.188 61.977,359.417 61.765 C 359.646 61.552,359.833 61.293,359.833 61.189 C 359.833 61.085,359.907 61.000,359.997 61.000 C 360.087 61.000,360.207 60.813,360.265 60.583 C 360.322 60.354,360.436 60.167,360.518 60.167 C 360.600 60.167,360.667 59.979,360.667 59.750 C 360.667 59.521,360.737 59.333,360.823 59.333 C 360.909 59.333,361.030 58.996,361.092 58.583 C 361.154 58.171,361.271 57.833,361.352 57.833 C 361.434 57.833,361.500 57.473,361.500 57.033 C 361.500 56.593,361.594 56.140,361.708 56.025 C 361.872 55.861,361.917 52.565,361.917 40.667 C 361.917 28.769,361.872 25.472,361.708 25.308 C 361.594 25.194,361.500 24.740,361.500 24.300 C 361.500 23.860,361.432 23.500,361.349 23.500 C 361.266 23.500,361.146 23.125,361.083 22.667 C 361.020 22.208,360.901 21.833,360.818 21.833 C 360.735 21.833,360.667 21.727,360.667 21.597 C 360.667 21.239,360.131 20.299,359.708 19.914 C 359.502 19.726,359.333 19.495,359.333 19.400 C 359.333 19.305,359.146 19.064,358.917 18.864 C 358.688 18.665,358.500 18.432,358.500 18.346 C 358.500 18.260,358.369 18.147,358.208 18.096 C 358.048 18.044,357.699 17.814,357.432 17.584 C 357.166 17.355,356.882 17.167,356.800 17.167 C 356.719 17.167,356.495 17.020,356.302 16.840 C 356.109 16.660,355.625 16.464,355.226 16.404 C 354.827 16.344,354.500 16.229,354.500 16.148 C 354.500 16.066,354.275 16.000,354.000 16.000 C 353.725 16.000,353.500 15.925,353.500 15.833 C 353.500 15.728,352.281 15.667,350.177 15.667 C 348.141 15.667,346.813 15.731,346.750 15.833 M32.125 16.551 C 31.672 16.917,31.672 64.257,32.125 64.601 C 32.488 64.877,39.833 64.939,39.833 64.667 C 39.833 64.575,39.946 64.500,40.083 64.500 C 40.303 64.500,40.333 63.343,40.333 55.083 L 40.333 45.667 42.657 45.667 C 43.935 45.667,45.021 45.601,45.070 45.522 C 45.119 45.442,45.742 45.341,46.455 45.298 C 47.335 45.244,47.940 45.110,48.345 44.879 C 48.672 44.693,49.170 44.489,49.452 44.427 C 49.735 44.365,50.097 44.169,50.259 43.991 C 50.420 43.812,50.621 43.667,50.706 43.667 C 51.166 43.667,53.398 41.048,53.590 40.282 C 53.652 40.035,53.770 39.833,53.851 39.833 C 53.933 39.833,54.000 39.688,54.000 39.510 C 54.000 39.332,54.070 39.143,54.155 39.091 C 54.240 39.038,54.358 38.565,54.416 38.039 C 54.474 37.513,54.586 36.933,54.665 36.750 C 54.999 35.973,55.061 35.201,55.118 31.181 C 55.157 28.408,55.118 26.885,55.006 26.772 C 54.911 26.678,54.833 26.353,54.833 26.050 C 54.833 25.748,54.769 25.500,54.691 25.500 C 54.612 25.500,54.503 24.963,54.448 24.308 C 54.393 23.652,54.270 23.037,54.174 22.941 C 54.078 22.845,54.000 22.632,54.000 22.467 C 54.000 22.302,53.934 22.167,53.854 22.167 C 53.774 22.167,53.667 21.960,53.616 21.708 C 53.565 21.456,53.377 21.094,53.198 20.904 C 53.020 20.713,52.824 20.399,52.762 20.204 C 52.700 20.010,52.507 19.805,52.333 19.750 C 52.159 19.695,51.971 19.503,51.914 19.325 C 51.857 19.146,51.740 19.000,51.654 19.000 C 51.568 19.000,51.340 18.819,51.147 18.597 C 50.954 18.375,50.611 18.147,50.384 18.090 C 50.157 18.033,49.817 17.843,49.628 17.666 C 49.439 17.490,48.958 17.297,48.559 17.238 C 48.160 17.178,47.833 17.062,47.833 16.981 C 47.833 16.900,47.615 16.833,47.347 16.833 C 47.080 16.833,46.833 16.749,46.798 16.645 C 46.695 16.334,32.506 16.243,32.125 16.551 M58.458 16.500 C 58.052 16.755,57.999 64.190,58.405 64.595 C 58.755 64.945,65.912 64.945,66.262 64.595 C 66.463 64.395,66.500 62.889,66.500 55.012 L 66.500 45.667 69.000 45.667 C 70.375 45.667,71.500 45.602,71.500 45.524 C 71.500 45.445,72.117 45.339,72.871 45.287 C 73.624 45.235,74.268 45.112,74.301 45.013 C 74.334 44.914,74.542 44.833,74.764 44.833 C 74.985 44.833,75.167 44.758,75.167 44.667 C 75.167 44.575,75.357 44.500,75.589 44.500 C 75.821 44.500,76.054 44.387,76.106 44.250 C 76.159 44.112,76.344 44.000,76.518 44.000 C 76.691 44.000,76.833 43.925,76.833 43.833 C 76.833 43.742,76.933 43.667,77.056 43.667 C 77.178 43.667,77.475 43.460,77.715 43.208 C 77.956 42.956,78.233 42.675,78.331 42.583 C 78.804 42.140,79.352 41.378,79.439 41.042 C 79.492 40.835,79.603 40.667,79.685 40.667 C 79.766 40.667,79.833 40.554,79.833 40.417 C 79.833 40.279,79.904 40.167,79.990 40.167 C 80.076 40.167,80.197 39.829,80.259 39.417 C 80.321 39.004,80.438 38.667,80.519 38.667 C 80.600 38.667,80.667 38.485,80.667 38.264 C 80.667 38.042,80.760 37.830,80.875 37.792 C 81.313 37.646,81.157 24.546,80.708 23.789 C 80.504 23.445,80.289 22.863,80.230 22.498 C 80.172 22.132,80.059 21.833,79.979 21.833 C 79.899 21.833,79.833 21.721,79.833 21.583 C 79.833 21.446,79.758 21.333,79.667 21.333 C 79.575 21.333,79.500 21.194,79.500 21.023 C 79.500 20.853,79.313 20.573,79.083 20.400 C 78.854 20.228,78.667 20.001,78.667 19.894 C 78.667 19.788,78.385 19.463,78.042 19.172 C 77.698 18.882,77.256 18.499,77.060 18.322 C 76.864 18.145,76.582 18.000,76.435 18.000 C 76.287 18.000,76.167 17.925,76.167 17.833 C 76.167 17.742,76.054 17.667,75.917 17.667 C 75.779 17.667,75.667 17.600,75.667 17.519 C 75.667 17.438,75.331 17.321,74.921 17.259 C 74.510 17.198,74.131 17.077,74.077 16.990 C 74.024 16.904,73.804 16.833,73.587 16.833 C 73.371 16.833,73.166 16.749,73.132 16.645 C 73.043 16.380,58.872 16.240,58.458 16.500 M168.208 16.444 C 167.836 16.594,167.916 23.932,168.292 24.077 C 168.452 24.139,170.138 24.182,172.039 24.173 L 175.495 24.156 175.539 44.237 C 175.583 64.098,175.587 64.322,175.917 64.571 C 176.396 64.933,183.402 64.955,183.762 64.595 C 183.966 64.392,184.000 61.469,184.000 44.363 C 184.000 26.285,184.025 24.359,184.264 24.268 C 184.409 24.212,186.052 24.167,187.917 24.167 C 189.781 24.167,191.425 24.121,191.570 24.066 C 191.968 23.913,191.968 16.587,191.570 16.434 C 191.255 16.314,168.509 16.323,168.208 16.444 M213.792 16.551 C 213.516 16.774,213.500 18.121,213.500 40.583 C 213.500 63.051,213.516 64.392,213.792 64.601 C 214.144 64.869,228.246 64.943,228.409 64.678 C 228.462 64.593,228.917 64.472,229.419 64.409 C 229.922 64.346,230.333 64.229,230.333 64.147 C 230.333 64.066,230.521 64.000,230.750 64.000 C 230.979 64.000,231.167 63.931,231.167 63.847 C 231.167 63.762,231.389 63.644,231.661 63.585 C 231.932 63.525,232.326 63.295,232.536 63.074 C 232.745 62.853,232.983 62.671,233.064 62.670 C 233.260 62.666,234.500 61.457,234.500 61.270 C 234.500 61.189,234.631 61.000,234.792 60.850 C 235.140 60.525,235.667 59.563,235.667 59.250 C 235.667 59.128,235.749 59.000,235.850 58.967 C 235.950 58.933,236.073 58.552,236.121 58.120 C 236.170 57.687,236.275 57.333,236.355 57.333 C 236.435 57.333,236.500 57.048,236.500 56.700 C 236.500 56.352,236.594 55.973,236.708 55.858 C 237.014 55.553,237.014 25.643,236.708 25.542 C 236.579 25.499,236.500 25.160,236.500 24.653 C 236.500 24.202,236.425 23.833,236.333 23.833 C 236.242 23.833,236.166 23.627,236.166 23.375 C 236.165 23.123,236.053 22.702,235.916 22.439 C 235.779 22.177,235.667 21.858,235.667 21.731 C 235.667 21.604,235.600 21.500,235.518 21.500 C 235.436 21.500,235.322 21.313,235.265 21.083 C 235.207 20.854,235.087 20.667,234.997 20.667 C 234.907 20.667,234.833 20.586,234.833 20.488 C 234.833 20.282,232.748 18.167,232.545 18.167 C 232.471 18.167,232.143 17.985,231.816 17.763 C 231.489 17.541,230.946 17.307,230.609 17.244 C 230.272 17.181,229.955 17.062,229.905 16.981 C 229.855 16.900,229.562 16.833,229.254 16.833 C 228.946 16.833,228.666 16.749,228.632 16.645 C 228.528 16.333,214.173 16.242,213.792 16.551 M266.292 16.565 C 266.030 16.764,266.000 17.150,266.000 20.314 L 266.000 23.842 266.428 24.004 C 266.663 24.094,268.307 24.167,270.081 24.167 C 271.855 24.167,273.425 24.212,273.570 24.268 C 273.808 24.359,273.833 26.291,273.833 44.434 C 273.833 62.159,273.862 64.500,274.083 64.500 C 274.221 64.500,274.333 64.575,274.333 64.667 C 274.333 64.979,281.778 64.884,281.899 64.570 C 281.954 64.425,282.000 55.320,282.000 44.338 C 282.000 26.283,282.025 24.359,282.264 24.268 C 282.409 24.212,284.052 24.167,285.917 24.167 C 287.781 24.167,289.425 24.121,289.570 24.066 C 289.968 23.913,289.968 16.587,289.570 16.434 C 288.980 16.208,266.596 16.334,266.292 16.565 M84.184 16.958 C 83.756 17.994,84.079 56.990,84.518 57.261 C 84.600 57.312,84.667 57.592,84.668 57.885 C 84.668 58.177,84.781 58.631,84.918 58.894 C 85.055 59.157,85.167 59.475,85.167 59.602 C 85.167 59.729,85.242 59.833,85.333 59.833 C 85.425 59.833,85.500 59.958,85.500 60.110 C 85.500 60.446,86.474 62.000,86.684 62.000 C 86.766 62.000,86.833 62.085,86.833 62.189 C 86.833 62.293,87.002 62.523,87.208 62.701 C 87.415 62.879,87.808 63.226,88.083 63.471 C 88.845 64.150,90.977 65.131,91.958 65.255 C 92.439 65.315,92.875 65.433,92.926 65.516 C 93.058 65.729,98.557 65.710,98.771 65.496 C 98.865 65.401,99.330 65.279,99.804 65.222 C 100.279 65.166,100.667 65.074,100.667 65.017 C 100.667 64.904,101.349 64.595,102.000 64.413 C 102.229 64.349,102.589 64.136,102.801 63.940 C 103.012 63.744,103.349 63.428,103.551 63.238 C 103.752 63.047,104.048 62.844,104.208 62.784 C 104.369 62.725,104.500 62.590,104.500 62.483 C 104.500 62.376,104.669 62.118,104.875 61.910 C 105.439 61.341,105.667 61.033,105.667 60.840 C 105.667 60.745,105.741 60.667,105.831 60.667 C 105.922 60.667,106.044 60.367,106.103 60.000 C 106.161 59.633,106.263 59.333,106.328 59.333 C 106.556 59.333,106.815 58.519,106.919 57.472 C 106.977 56.892,107.095 56.267,107.182 56.083 C 107.279 55.878,107.322 48.217,107.295 36.167 L 107.250 16.583 103.293 16.539 L 99.336 16.494 99.283 35.372 C 99.230 54.199,99.172 56.126,98.659 56.306 C 98.571 56.336,98.500 56.442,98.500 56.541 C 98.500 56.639,98.261 56.933,97.970 57.193 C 96.879 58.167,93.167 57.651,93.167 56.526 C 93.167 56.435,93.073 56.330,92.958 56.292 C 92.794 56.237,92.741 52.162,92.705 36.824 C 92.676 24.446,92.601 17.367,92.497 17.263 C 92.407 17.173,92.333 16.965,92.333 16.800 C 92.333 16.519,92.075 16.500,88.354 16.500 L 84.374 16.500 84.184 16.958 M111.707 16.831 C 111.294 17.493,111.418 64.343,111.833 64.452 C 112.017 64.500,112.167 64.605,112.167 64.686 C 112.167 64.990,118.827 64.863,119.137 64.554 C 119.395 64.296,119.417 63.075,119.417 48.970 C 119.417 40.553,119.464 33.667,119.522 33.667 C 119.580 33.667,119.681 34.167,119.747 34.778 C 119.812 35.390,119.925 36.009,119.997 36.153 C 120.357 36.878,120.491 37.327,120.594 38.160 C 120.657 38.661,120.773 39.204,120.854 39.368 C 120.934 39.532,121.066 39.801,121.146 39.965 C 121.227 40.129,121.348 40.745,121.417 41.333 C 121.485 41.922,121.598 42.519,121.668 42.660 C 122.010 43.353,122.153 43.818,122.252 44.563 C 122.351 45.306,122.425 45.560,122.845 46.583 C 122.920 46.767,123.032 47.329,123.094 47.833 C 123.156 48.337,123.342 49.050,123.508 49.417 C 123.673 49.783,123.861 50.496,123.925 51.000 C 123.988 51.504,124.174 52.217,124.337 52.583 C 124.501 52.950,124.680 53.621,124.735 54.076 C 124.837 54.908,125.162 56.013,125.350 56.167 C 125.406 56.212,125.505 56.727,125.570 57.311 C 125.635 57.894,125.749 58.494,125.824 58.644 C 126.188 59.370,126.320 59.826,126.417 60.706 C 126.476 61.231,126.593 61.705,126.678 61.757 C 126.764 61.810,126.833 62.032,126.833 62.250 C 126.833 62.468,126.898 62.687,126.978 62.736 C 127.057 62.785,127.160 63.161,127.206 63.570 C 127.350 64.849,127.296 64.833,131.738 64.833 C 134.246 64.833,135.667 64.773,135.667 64.667 C 135.667 64.575,135.779 64.500,135.917 64.500 C 136.174 64.500,136.320 17.428,136.066 16.764 C 135.948 16.458,129.137 16.366,128.667 16.663 C 128.448 16.801,128.417 18.364,128.417 29.077 C 128.417 35.818,128.360 41.333,128.292 41.333 C 128.223 41.333,128.167 41.033,128.167 40.667 C 128.167 40.300,128.102 40.000,128.023 40.000 C 127.944 40.000,127.833 39.607,127.776 39.126 C 127.719 38.645,127.596 38.227,127.503 38.195 C 127.410 38.164,127.333 37.812,127.333 37.413 C 127.333 37.013,127.268 36.646,127.189 36.597 C 127.109 36.548,126.994 36.131,126.933 35.670 C 126.872 35.210,126.749 34.833,126.661 34.833 C 126.572 34.833,126.500 34.533,126.500 34.167 C 126.500 33.800,126.435 33.500,126.357 33.500 C 126.278 33.500,126.167 33.112,126.111 32.638 C 126.055 32.164,125.932 31.699,125.838 31.604 C 125.744 31.510,125.667 31.148,125.667 30.800 C 125.667 30.452,125.600 30.167,125.519 30.167 C 125.438 30.167,125.320 29.755,125.258 29.253 C 125.195 28.750,125.074 28.295,124.988 28.243 C 124.903 28.190,124.833 27.893,124.833 27.583 C 124.833 27.273,124.765 26.978,124.682 26.926 C 124.599 26.875,124.480 26.458,124.417 26.000 C 124.354 25.542,124.234 25.125,124.151 25.074 C 124.068 25.022,124.000 24.689,124.000 24.333 C 124.000 23.977,123.932 23.644,123.849 23.593 C 123.766 23.542,123.646 23.125,123.583 22.666 C 123.520 22.208,123.401 21.833,123.318 21.833 C 123.235 21.833,123.167 21.538,123.167 21.177 C 123.167 20.815,123.100 20.479,123.019 20.429 C 122.939 20.379,122.821 19.924,122.757 19.419 C 122.694 18.913,122.573 18.500,122.488 18.500 C 122.403 18.500,122.333 18.200,122.333 17.833 C 122.333 17.467,122.258 17.167,122.167 17.167 C 122.075 17.167,122.000 17.017,122.000 16.833 C 122.000 16.313,112.032 16.311,111.707 16.831 M140.867 16.700 C 140.495 17.071,140.586 64.319,140.958 64.601 C 141.361 64.907,147.398 64.927,148.049 64.625 L 148.497 64.417 148.499 49.342 C 148.500 34.577,148.552 33.145,149.000 35.583 C 149.314 37.297,149.367 37.500,149.503 37.500 C 149.576 37.500,149.686 37.894,149.748 38.375 C 149.868 39.311,150.108 40.223,150.368 40.729 C 150.456 40.900,150.570 41.446,150.621 41.942 C 150.672 42.438,150.779 42.883,150.857 42.931 C 150.936 42.980,151.000 43.198,151.000 43.417 C 151.000 43.635,151.072 43.858,151.159 43.912 C 151.246 43.966,151.369 44.460,151.431 45.009 C 151.493 45.558,151.609 46.048,151.689 46.097 C 151.768 46.146,151.833 46.365,151.833 46.583 C 151.833 46.802,151.901 47.022,151.984 47.073 C 152.066 47.124,152.188 47.632,152.254 48.201 C 152.320 48.771,152.452 49.390,152.546 49.577 C 152.641 49.764,152.777 50.039,152.849 50.189 C 152.921 50.339,153.031 50.922,153.095 51.485 C 153.158 52.047,153.276 52.548,153.355 52.597 C 153.435 52.646,153.500 52.865,153.500 53.083 C 153.500 53.302,153.572 53.525,153.659 53.579 C 153.746 53.633,153.869 54.126,153.931 54.675 C 153.993 55.225,154.109 55.714,154.189 55.764 C 154.268 55.813,154.333 56.032,154.333 56.250 C 154.333 56.468,154.401 56.689,154.484 56.740 C 154.566 56.791,154.688 57.299,154.754 57.868 C 154.820 58.437,154.940 59.038,155.020 59.202 C 155.101 59.366,155.232 59.634,155.313 59.798 C 155.393 59.962,155.510 60.506,155.572 61.007 C 155.677 61.852,155.816 62.312,156.186 63.039 C 156.267 63.199,156.333 63.501,156.333 63.711 C 156.333 64.801,156.461 64.833,160.771 64.833 C 164.218 64.833,164.724 64.800,164.970 64.554 C 165.279 64.245,165.501 18.279,165.200 17.115 L 165.062 16.583 161.490 16.537 C 158.013 16.492,157.909 16.500,157.625 16.847 C 157.353 17.179,157.333 18.007,157.333 28.885 C 157.333 37.097,157.281 40.514,157.157 40.390 C 157.060 40.293,156.937 39.789,156.883 39.269 C 156.830 38.749,156.721 38.284,156.643 38.235 C 156.564 38.187,156.500 37.941,156.500 37.690 C 156.500 37.439,156.423 37.156,156.329 37.062 C 156.235 36.968,156.112 36.503,156.056 36.029 C 156.000 35.555,155.889 35.167,155.810 35.167 C 155.731 35.167,155.667 34.867,155.667 34.500 C 155.667 34.133,155.595 33.833,155.508 33.833 C 155.421 33.833,155.299 33.383,155.237 32.833 C 155.175 32.283,155.058 31.833,154.978 31.833 C 154.899 31.833,154.833 31.586,154.833 31.283 C 154.833 30.981,154.754 30.654,154.657 30.557 C 154.560 30.460,154.437 29.958,154.384 29.440 C 154.330 28.923,154.222 28.500,154.143 28.500 C 154.065 28.500,154.000 28.242,154.000 27.927 C 154.000 27.611,153.929 27.309,153.843 27.256 C 153.757 27.203,153.640 26.804,153.584 26.371 C 153.529 25.938,153.412 25.453,153.325 25.294 C 153.238 25.135,153.167 24.820,153.167 24.595 C 153.167 24.370,153.095 24.142,153.008 24.088 C 152.920 24.034,152.798 23.540,152.736 22.991 C 152.674 22.442,152.558 21.952,152.478 21.903 C 152.398 21.854,152.333 21.639,152.333 21.426 C 152.333 21.213,152.221 20.823,152.084 20.561 C 151.947 20.298,151.835 19.864,151.834 19.595 C 151.833 19.142,151.639 18.381,151.321 17.583 C 151.248 17.400,151.140 17.081,151.083 16.875 L 150.978 16.500 146.022 16.500 C 142.390 16.500,141.013 16.553,140.867 16.700 M366.207 16.831 C 365.793 17.494,365.918 64.189,366.335 64.546 C 366.794 64.939,372.875 64.982,373.262 64.595 C 373.465 64.393,373.502 62.150,373.512 49.554 C 373.518 41.140,373.585 34.894,373.667 35.083 C 373.745 35.267,373.816 35.754,373.823 36.167 C 373.831 36.579,373.989 37.742,374.176 38.750 C 374.362 39.758,374.584 41.190,374.669 41.932 C 374.754 42.674,374.944 43.912,375.092 44.682 C 375.239 45.453,375.392 46.346,375.431 46.667 C 375.763 49.411,376.053 51.297,376.181 51.539 C 376.265 51.699,376.336 52.224,376.339 52.706 C 376.342 53.189,376.452 54.071,376.583 54.667 C 376.714 55.262,376.824 56.027,376.827 56.365 C 376.831 56.704,376.908 57.027,377.000 57.083 C 377.092 57.140,377.169 57.613,377.173 58.135 C 377.176 58.657,377.286 59.571,377.417 60.167 C 377.548 60.762,377.658 61.531,377.661 61.875 C 377.664 62.219,377.742 62.500,377.833 62.500 C 377.925 62.500,378.000 62.896,378.000 63.380 C 378.000 64.800,378.087 64.833,381.764 64.833 C 385.290 64.833,385.333 64.818,385.333 63.595 C 385.333 63.176,385.408 62.833,385.500 62.833 C 385.592 62.833,385.667 62.511,385.667 62.117 C 385.667 61.722,385.743 61.324,385.835 61.231 C 385.928 61.138,386.052 60.223,386.111 59.198 C 386.170 58.172,386.281 57.333,386.359 57.333 C 386.436 57.333,386.500 57.011,386.500 56.617 C 386.500 56.222,386.576 55.824,386.669 55.731 C 386.762 55.638,386.886 54.723,386.944 53.698 C 387.003 52.672,387.107 51.833,387.175 51.833 C 387.327 51.833,387.462 50.973,387.686 48.583 C 387.781 47.575,387.928 46.620,388.012 46.461 C 388.097 46.301,388.167 45.923,388.167 45.619 C 388.167 45.315,388.237 44.995,388.323 44.908 C 388.409 44.821,388.532 43.906,388.597 42.875 C 388.661 41.844,388.778 41.000,388.857 41.000 C 388.936 41.000,389.000 40.733,389.000 40.406 C 389.000 40.079,389.071 39.678,389.158 39.516 C 389.245 39.353,389.369 38.345,389.433 37.277 C 389.497 36.208,389.608 35.333,389.681 35.333 C 389.754 35.333,389.843 35.052,389.879 34.708 C 389.915 34.365,389.957 40.873,389.972 49.171 C 390.000 64.064,390.004 64.263,390.335 64.546 C 390.784 64.930,397.333 64.985,397.647 64.607 C 397.784 64.441,397.823 58.006,397.792 40.482 L 397.750 16.583 392.250 16.539 C 386.190 16.490,386.333 16.467,386.333 17.522 C 386.333 17.774,386.258 18.027,386.167 18.083 C 386.075 18.140,386.000 18.627,386.000 19.166 C 386.000 19.704,385.917 20.356,385.815 20.614 C 385.713 20.872,385.565 21.721,385.485 22.500 C 385.229 25.017,385.045 26.411,384.933 26.674 C 384.833 26.910,384.747 27.567,384.345 31.167 C 384.269 31.854,384.124 32.717,384.024 33.083 C 383.923 33.450,383.839 34.214,383.837 34.782 C 383.835 35.349,383.758 35.860,383.667 35.917 C 383.575 35.973,383.499 36.446,383.498 36.968 C 383.497 37.490,383.385 38.285,383.248 38.735 C 383.112 39.185,383.000 40.024,383.000 40.600 C 383.000 41.176,382.925 41.693,382.833 41.750 C 382.742 41.807,382.666 42.317,382.665 42.885 C 382.664 43.452,382.551 44.285,382.415 44.735 C 382.278 45.185,382.159 46.085,382.150 46.735 C 382.133 47.922,381.887 47.764,381.850 46.542 C 381.841 46.244,381.758 46.000,381.667 46.000 C 381.570 46.000,381.500 45.472,381.500 44.750 C 381.500 44.063,381.435 43.500,381.356 43.500 C 381.277 43.500,381.175 42.783,381.129 41.906 C 381.083 41.029,380.960 40.227,380.856 40.123 C 380.752 40.018,380.667 39.424,380.667 38.800 C 380.667 38.177,380.602 37.667,380.522 37.667 C 380.443 37.667,380.342 36.913,380.297 35.992 C 380.252 35.061,380.131 34.231,380.025 34.125 C 379.920 34.020,379.833 33.461,379.833 32.883 C 379.833 32.306,379.769 31.833,379.691 31.833 C 379.612 31.833,379.507 31.039,379.458 30.067 C 379.408 29.096,379.285 28.218,379.184 28.117 C 379.083 28.016,379.000 27.428,379.000 26.810 C 379.000 26.192,378.936 25.647,378.858 25.599 C 378.780 25.550,378.673 24.779,378.619 23.884 C 378.564 22.966,378.445 22.232,378.344 22.198 C 378.242 22.164,378.167 21.657,378.167 20.996 C 378.167 20.367,378.092 19.807,378.000 19.750 C 377.908 19.693,377.833 19.106,377.833 18.444 C 377.833 16.363,378.253 16.500,371.864 16.500 C 366.606 16.500,366.406 16.512,366.207 16.831 M254.161 23.782 C 254.788 24.221,255.167 24.644,255.167 24.907 C 255.167 25.039,255.231 25.187,255.309 25.235 C 255.737 25.499,255.985 51.349,255.593 54.906 C 255.415 56.525,254.520 57.667,253.431 57.667 C 253.113 57.667,252.807 57.742,252.750 57.833 C 252.693 57.925,252.501 58.000,252.323 58.000 C 252.146 58.000,252.000 57.925,252.000 57.833 C 252.000 57.742,251.700 57.667,251.333 57.667 C 250.967 57.667,250.667 57.604,250.667 57.527 C 250.667 57.450,250.496 57.309,250.287 57.214 C 250.079 57.119,249.760 56.751,249.579 56.396 C 249.398 56.041,249.194 55.725,249.125 55.694 C 249.056 55.664,249.000 55.125,249.000 54.496 C 249.000 53.867,248.925 53.307,248.833 53.250 C 248.725 53.183,248.667 48.748,248.667 40.490 C 248.667 32.163,248.724 27.833,248.833 27.833 C 248.927 27.833,249.000 27.361,249.000 26.750 C 249.000 26.154,249.072 25.667,249.159 25.667 C 249.247 25.667,249.367 25.404,249.428 25.083 C 249.488 24.762,249.598 24.500,249.673 24.500 C 249.748 24.500,249.925 24.384,250.067 24.242 C 250.849 23.461,253.308 23.184,254.161 23.782 M351.838 23.786 C 353.547 24.970,353.529 24.773,353.455 41.569 C 353.386 57.182,353.488 56.147,351.882 57.497 C 351.771 57.591,351.489 57.667,351.255 57.667 C 351.020 57.667,350.680 57.760,350.498 57.873 C 350.234 58.038,350.099 58.038,349.836 57.873 C 349.654 57.760,349.279 57.667,349.002 57.667 C 348.726 57.667,348.500 57.592,348.500 57.500 C 348.500 57.408,348.367 57.333,348.204 57.333 C 347.906 57.333,347.333 56.793,347.333 56.512 C 347.333 56.429,347.247 56.332,347.141 56.297 C 347.026 56.259,346.917 55.685,346.869 54.863 C 346.826 54.109,346.725 53.453,346.645 53.403 C 346.454 53.285,346.455 27.833,346.646 27.833 C 346.726 27.833,346.824 27.207,346.865 26.442 C 346.943 24.952,347.308 24.341,348.492 23.724 C 349.132 23.390,351.325 23.430,351.838 23.786 M43.856 24.320 C 44.970 24.464,46.000 25.077,46.000 25.597 C 46.000 25.712,46.094 25.837,46.208 25.875 C 46.543 25.987,46.504 35.613,46.167 36.266 C 45.513 37.531,42.815 38.283,40.769 37.770 L 40.333 37.660 40.333 31.011 C 40.333 25.847,40.380 24.342,40.542 24.277 C 40.876 24.142,42.656 24.165,43.856 24.320 M71.332 24.618 C 71.882 24.975,72.333 25.496,72.333 25.776 C 72.333 25.899,72.408 26.000,72.500 26.000 C 72.595 26.000,72.667 26.500,72.667 27.167 C 72.667 27.833,72.738 28.333,72.833 28.333 C 72.937 28.333,73.000 29.330,73.000 30.990 C 73.000 32.582,72.933 33.688,72.833 33.750 C 72.742 33.807,72.667 34.250,72.667 34.734 C 72.667 36.333,71.746 37.542,70.388 37.728 C 69.421 37.861,67.369 37.861,66.875 37.728 L 66.500 37.628 66.500 30.994 C 66.500 25.850,66.547 24.340,66.708 24.265 C 67.163 24.056,70.905 24.342,71.332 24.618 M225.900 24.339 C 227.462 24.565,228.048 25.156,228.329 26.787 C 228.639 28.583,228.500 54.577,228.177 55.250 C 227.684 56.280,226.999 56.833,226.217 56.833 C 225.823 56.833,225.500 56.911,225.500 57.006 C 225.500 57.117,224.861 57.161,223.708 57.131 L 221.917 57.083 221.874 40.760 C 221.840 27.812,221.875 24.410,222.041 24.305 C 222.331 24.120,224.518 24.140,225.900 24.339 M9.292 98.110 C 9.040 98.153,8.833 98.259,8.833 98.344 C 8.833 98.430,8.646 98.500,8.417 98.500 C 8.188 98.500,8.000 98.566,8.000 98.646 C 8.000 98.726,7.765 98.839,7.478 98.896 C 7.190 98.954,6.833 99.132,6.684 99.292 C 6.534 99.452,6.268 99.663,6.092 99.761 C 5.916 99.859,5.692 100.083,5.594 100.259 C 5.497 100.435,5.286 100.701,5.125 100.850 C 4.965 101.000,4.787 101.357,4.729 101.644 C 4.672 101.932,4.559 102.167,4.479 102.167 C 4.399 102.167,4.333 102.273,4.333 102.403 C 4.333 102.533,4.240 102.670,4.125 102.708 C 3.967 102.761,3.917 103.654,3.917 106.417 C 3.917 109.180,3.967 110.072,4.125 110.125 C 4.240 110.163,4.333 110.376,4.333 110.597 C 4.333 110.819,4.402 111.000,4.487 111.000 C 4.571 111.000,4.686 111.210,4.743 111.468 C 4.799 111.725,4.993 112.041,5.173 112.171 C 5.353 112.301,5.500 112.491,5.500 112.594 C 5.500 112.697,5.688 112.999,5.918 113.266 C 6.147 113.532,6.376 113.877,6.426 114.033 C 6.476 114.189,6.659 114.361,6.833 114.417 C 7.007 114.472,7.195 114.659,7.250 114.833 C 7.305 115.007,7.493 115.195,7.667 115.250 C 7.841 115.305,8.029 115.497,8.086 115.675 C 8.143 115.854,8.260 116.000,8.346 116.000 C 8.432 116.000,8.665 116.188,8.864 116.417 C 9.064 116.646,9.297 116.833,9.383 116.833 C 9.569 116.833,11.439 118.729,11.917 119.401 C 12.100 119.659,12.344 119.969,12.458 120.090 C 12.573 120.211,12.667 120.390,12.667 120.488 C 12.667 120.586,12.738 120.667,12.826 120.667 C 12.913 120.667,13.034 120.929,13.094 121.250 C 13.155 121.571,13.270 121.833,13.352 121.833 C 13.433 121.833,13.500 122.133,13.500 122.500 C 13.500 122.867,13.575 123.167,13.667 123.167 C 13.758 123.167,13.833 123.504,13.833 123.917 C 13.833 124.329,13.758 124.667,13.667 124.667 C 13.575 124.667,13.500 124.811,13.500 124.986 C 13.500 125.443,12.969 126.317,12.625 126.428 C 12.465 126.480,12.333 126.592,12.333 126.678 C 12.333 126.763,11.883 126.833,11.333 126.833 C 10.783 126.833,10.333 126.766,10.333 126.685 C 10.333 126.603,10.152 126.491,9.930 126.435 C 9.514 126.330,9.198 125.667,9.168 124.833 C 9.160 124.604,9.113 123.760,9.064 122.958 L 8.976 121.500 6.238 121.500 L 3.500 121.500 3.500 123.417 C 3.500 124.471,3.564 125.333,3.642 125.333 C 3.721 125.333,3.830 125.876,3.886 126.540 C 3.942 127.203,4.065 127.772,4.160 127.803 C 4.255 127.835,4.333 128.042,4.333 128.264 C 4.333 128.485,4.403 128.667,4.489 128.667 C 4.574 128.667,4.696 128.829,4.759 129.028 C 4.907 129.496,6.337 130.926,6.805 131.074 C 7.004 131.138,7.167 131.259,7.167 131.345 C 7.167 131.430,7.348 131.500,7.569 131.500 C 7.791 131.500,8.003 131.594,8.042 131.708 C 8.132 131.979,14.615 132.011,14.798 131.741 C 14.913 131.572,16.025 131.000,16.240 131.000 C 16.298 131.000,16.662 130.664,17.048 130.254 C 18.028 129.213,18.167 129.038,18.167 128.840 C 18.167 128.745,18.242 128.667,18.333 128.667 C 18.425 128.667,18.500 128.584,18.500 128.484 C 18.500 128.312,18.785 127.605,19.225 126.683 C 19.609 125.880,19.473 120.684,19.050 119.971 C 18.850 119.634,18.636 119.090,18.575 118.763 C 18.513 118.435,18.396 118.167,18.315 118.167 C 18.233 118.167,18.167 118.054,18.167 117.917 C 18.167 117.779,18.092 117.667,18.000 117.667 C 17.908 117.667,17.833 117.558,17.833 117.424 C 17.833 117.291,17.655 117.003,17.437 116.785 C 17.218 116.567,16.990 116.230,16.928 116.036 C 16.867 115.842,16.670 115.637,16.491 115.581 C 16.313 115.524,16.167 115.414,16.167 115.337 C 16.167 115.213,14.439 113.405,13.821 112.883 C 13.690 112.773,13.493 112.585,13.383 112.466 C 13.273 112.347,13.085 112.160,12.966 112.050 C 12.847 111.939,12.658 111.752,12.546 111.633 C 12.287 111.358,11.976 111.046,11.700 110.787 C 10.934 110.065,10.334 109.287,10.228 108.875 C 10.174 108.669,10.064 108.500,9.982 108.500 C 9.900 108.500,9.833 108.317,9.833 108.093 C 9.833 107.869,9.758 107.640,9.667 107.583 C 8.905 107.112,9.698 103.891,10.650 103.589 C 11.816 103.218,13.049 103.525,13.336 104.257 C 13.460 104.574,13.623 104.833,13.698 104.833 C 13.772 104.833,13.833 105.583,13.833 106.500 L 13.833 108.167 16.583 108.167 L 19.333 108.167 19.333 106.081 C 19.333 104.829,19.256 103.847,19.141 103.623 C 18.753 102.873,18.687 102.696,18.576 102.104 C 18.514 101.772,18.396 101.500,18.315 101.500 C 18.233 101.500,18.167 101.388,18.167 101.250 C 18.167 101.112,18.092 101.000,18.000 101.000 C 17.908 101.000,17.833 100.891,17.833 100.758 C 17.833 100.479,16.690 99.333,16.412 99.333 C 16.356 99.333,16.197 99.221,16.060 99.083 C 15.922 98.946,15.665 98.833,15.488 98.833 C 15.311 98.833,15.167 98.758,15.167 98.667 C 15.167 98.575,14.985 98.500,14.764 98.500 C 14.542 98.500,14.331 98.409,14.294 98.297 C 14.224 98.090,10.272 97.942,9.292 98.110 M330.042 98.109 C 329.835 98.153,329.667 98.260,329.667 98.345 C 329.667 98.430,329.479 98.500,329.250 98.500 C 329.021 98.500,328.833 98.575,328.833 98.667 C 328.833 98.758,328.651 98.833,328.429 98.833 C 328.206 98.833,327.911 98.946,327.774 99.083 C 327.636 99.221,327.478 99.333,327.422 99.333 C 327.232 99.333,326.729 99.800,326.000 100.653 C 325.238 101.545,325.167 101.651,325.167 101.896 C 325.167 102.029,325.092 102.164,325.002 102.194 C 324.911 102.225,324.788 102.719,324.728 103.292 C 324.668 103.865,324.555 104.333,324.476 104.333 C 324.212 104.333,324.302 109.659,324.571 109.929 C 324.915 110.273,329.251 110.273,329.595 109.929 C 329.777 109.747,329.833 109.178,329.833 107.512 C 329.833 106.171,329.897 105.333,330.000 105.333 C 330.092 105.333,330.167 105.120,330.167 104.859 C 330.167 103.345,333.632 102.790,333.908 104.260 C 333.967 104.575,334.087 104.833,334.174 104.833 C 334.266 104.833,334.333 105.674,334.333 106.833 C 334.333 107.933,334.268 108.833,334.188 108.833 C 334.108 108.833,333.993 109.208,333.932 109.667 C 333.872 110.125,333.749 110.500,333.661 110.500 C 333.572 110.500,333.500 110.612,333.500 110.750 C 333.500 110.888,333.433 111.000,333.351 111.000 C 333.270 111.000,333.156 111.188,333.098 111.417 C 333.041 111.646,332.920 111.833,332.830 111.833 C 332.740 111.833,332.667 111.946,332.667 112.083 C 332.667 112.221,332.597 112.333,332.511 112.333 C 332.426 112.333,332.304 112.496,332.241 112.694 C 332.178 112.893,331.967 113.223,331.772 113.427 C 331.576 113.632,331.229 114.047,331.000 114.349 C 330.771 114.651,330.115 115.365,329.542 115.937 C 328.969 116.509,328.500 117.057,328.500 117.155 C 328.500 117.253,328.430 117.333,328.345 117.333 C 328.259 117.333,328.143 117.479,328.086 117.658 C 328.029 117.837,327.837 118.029,327.658 118.086 C 327.479 118.143,327.333 118.324,327.333 118.488 C 327.333 118.652,327.146 118.927,326.917 119.100 C 326.688 119.272,326.500 119.502,326.500 119.611 C 326.500 119.720,326.403 119.909,326.285 120.030 C 326.032 120.290,325.500 121.387,325.500 121.650 C 325.500 121.751,325.425 121.833,325.333 121.833 C 325.242 121.833,325.167 122.015,325.167 122.236 C 325.167 122.458,325.089 122.665,324.994 122.697 C 324.898 122.728,324.775 123.297,324.719 123.960 C 324.664 124.624,324.554 125.167,324.476 125.167 C 324.397 125.167,324.333 126.592,324.333 128.333 L 324.333 131.500 332.083 131.500 L 339.833 131.500 339.833 129.018 C 339.833 126.008,340.454 126.333,334.713 126.333 L 330.121 126.333 330.237 125.042 C 330.301 124.331,330.423 123.725,330.510 123.694 C 330.596 123.664,330.667 123.533,330.667 123.403 C 330.667 123.273,330.736 123.167,330.820 123.167 C 330.904 123.167,331.023 122.942,331.083 122.667 C 331.144 122.392,331.320 122.073,331.474 121.959 C 331.629 121.844,331.899 121.525,332.075 121.250 C 332.250 120.975,332.680 120.466,333.030 120.119 C 333.380 119.771,333.667 119.414,333.667 119.326 C 333.667 119.237,334.182 118.655,334.811 118.033 C 335.441 117.411,336.007 116.741,336.070 116.543 C 336.132 116.345,336.326 116.139,336.500 116.083 C 336.674 116.028,336.868 115.818,336.932 115.616 C 336.996 115.415,337.176 115.138,337.333 115.000 C 337.490 114.862,337.672 114.581,337.737 114.375 C 337.803 114.169,337.926 114.000,338.011 114.000 C 338.097 114.000,338.167 113.888,338.167 113.750 C 338.167 113.612,338.242 113.500,338.333 113.500 C 338.425 113.500,338.500 113.380,338.500 113.234 C 338.500 112.944,339.010 111.950,339.203 111.863 C 339.269 111.833,339.371 111.552,339.430 111.238 C 339.489 110.924,339.595 110.667,339.666 110.667 C 339.798 110.667,339.876 110.355,340.186 108.583 C 340.379 107.478,340.264 103.682,340.022 103.212 C 339.939 103.050,339.666 102.485,339.416 101.958 C 339.165 101.431,338.894 101.000,338.813 101.000 C 338.733 101.000,338.667 100.887,338.667 100.750 C 338.667 100.450,337.522 99.333,337.215 99.333 C 337.097 99.333,337.000 99.264,337.000 99.180 C 337.000 99.096,336.775 98.977,336.500 98.917 C 336.225 98.856,336.000 98.738,336.000 98.653 C 336.000 98.569,335.819 98.500,335.597 98.500 C 335.376 98.500,335.164 98.408,335.126 98.296 C 335.057 98.088,330.853 97.933,330.042 98.109 M348.500 98.110 C 348.271 98.157,348.012 98.264,347.925 98.347 C 347.838 98.431,347.632 98.500,347.467 98.500 C 347.302 98.500,347.167 98.567,347.167 98.648 C 347.167 98.730,346.904 98.845,346.583 98.906 C 346.262 98.966,346.000 99.075,346.000 99.148 C 346.000 99.221,345.738 99.422,345.417 99.595 C 345.096 99.768,344.833 99.955,344.833 100.012 C 344.833 100.069,344.644 100.333,344.412 100.599 C 344.181 100.865,343.948 101.252,343.894 101.458 C 343.841 101.665,343.730 101.833,343.649 101.833 C 343.567 101.833,343.500 101.940,343.500 102.069 C 343.500 102.199,343.424 102.331,343.331 102.362 C 343.238 102.393,343.115 102.924,343.057 103.542 C 342.999 104.161,342.888 104.667,342.809 104.667 C 342.731 104.667,342.667 109.317,342.667 115.000 C 342.667 120.683,342.731 125.333,342.809 125.333 C 342.888 125.333,343.002 125.877,343.064 126.542 C 343.125 127.206,343.249 127.775,343.338 127.806 C 343.427 127.836,343.500 128.005,343.500 128.181 C 343.500 128.356,343.567 128.500,343.649 128.500 C 343.730 128.500,343.844 128.688,343.902 128.917 C 343.959 129.146,344.080 129.333,344.170 129.333 C 344.260 129.333,344.333 129.414,344.333 129.513 C 344.333 129.746,345.254 130.667,345.487 130.667 C 345.586 130.667,345.667 130.740,345.667 130.830 C 345.667 130.920,345.854 131.041,346.083 131.098 C 346.313 131.156,346.500 131.270,346.500 131.351 C 346.500 131.433,346.681 131.500,346.903 131.500 C 347.124 131.500,347.337 131.594,347.375 131.708 C 347.564 132.274,354.833 131.887,354.833 131.311 C 354.833 131.251,355.002 131.159,355.208 131.106 C 355.415 131.052,355.801 130.819,356.068 130.588 C 356.334 130.356,356.598 130.167,356.655 130.167 C 356.711 130.167,356.899 129.904,357.072 129.583 C 357.244 129.262,357.446 129.000,357.519 129.000 C 357.592 129.000,357.701 128.737,357.761 128.417 C 357.821 128.096,357.926 127.833,357.993 127.833 C 358.168 127.833,358.667 126.220,358.667 125.657 C 358.667 125.398,358.742 125.140,358.833 125.083 C 359.042 124.954,359.065 105.000,358.857 105.000 C 358.778 105.000,358.669 104.570,358.615 104.044 C 358.560 103.519,358.437 103.062,358.341 103.030 C 358.245 102.998,358.167 102.791,358.167 102.569 C 358.167 102.348,358.101 102.167,358.021 102.167 C 357.941 102.167,357.830 101.942,357.775 101.667 C 357.638 100.983,355.693 99.030,355.013 98.894 C 354.731 98.838,354.500 98.726,354.500 98.646 C 354.500 98.566,354.319 98.500,354.097 98.500 C 353.876 98.500,353.665 98.412,353.629 98.304 C 353.561 98.100,349.334 97.940,348.500 98.110 M367.167 98.111 C 366.938 98.157,366.679 98.264,366.592 98.347 C 366.505 98.431,366.261 98.500,366.050 98.500 C 365.839 98.500,365.667 98.569,365.667 98.653 C 365.667 98.738,365.442 98.856,365.167 98.917 C 364.892 98.977,364.667 99.079,364.667 99.144 C 364.667 99.209,364.423 99.405,364.125 99.581 C 363.512 99.943,363.014 100.482,363.006 100.792 C 363.002 100.906,362.925 101.000,362.833 101.000 C 362.742 101.000,362.667 101.112,362.667 101.250 C 362.667 101.388,362.596 101.500,362.510 101.500 C 362.424 101.500,362.303 101.837,362.241 102.250 C 362.179 102.662,362.062 103.000,361.981 103.000 C 361.900 103.000,361.833 103.225,361.833 103.500 C 361.833 103.775,361.757 104.000,361.663 104.000 C 361.551 104.000,361.508 105.051,361.538 107.042 L 361.583 110.083 364.167 110.083 L 366.750 110.083 366.869 107.356 L 366.987 104.629 367.569 104.065 C 368.428 103.230,370.112 103.219,370.899 104.042 L 371.417 104.583 371.417 107.048 C 371.417 108.586,371.351 109.557,371.241 109.631 C 371.041 109.767,370.500 110.875,370.500 111.150 C 370.500 111.251,370.425 111.333,370.333 111.333 C 370.242 111.333,370.167 111.446,370.167 111.583 C 370.167 111.721,370.097 111.833,370.011 111.833 C 369.926 111.833,369.804 111.996,369.741 112.194 C 369.678 112.393,369.448 112.734,369.230 112.952 C 369.012 113.170,368.833 113.453,368.833 113.580 C 368.833 113.707,368.683 113.858,368.500 113.917 C 368.317 113.975,368.167 114.079,368.167 114.147 C 368.167 114.216,367.735 114.731,367.208 115.292 C 365.788 116.803,364.759 117.995,364.682 118.219 C 364.645 118.328,364.487 118.529,364.331 118.667 C 364.175 118.804,363.994 119.085,363.929 119.292 C 363.864 119.498,363.741 119.667,363.655 119.667 C 363.570 119.667,363.500 119.779,363.500 119.917 C 363.500 120.054,363.425 120.167,363.333 120.167 C 363.242 120.167,363.167 120.249,363.167 120.350 C 363.167 120.607,362.632 121.729,362.449 121.854 C 362.365 121.912,362.258 122.306,362.210 122.729 C 362.162 123.153,362.058 123.500,361.978 123.500 C 361.899 123.500,361.833 123.800,361.833 124.167 C 361.833 124.533,361.758 124.833,361.667 124.833 C 361.561 124.833,361.500 126.056,361.500 128.167 L 361.500 131.500 369.167 131.500 L 376.833 131.500 376.833 128.917 L 376.833 126.333 371.917 126.333 C 367.111 126.333,367.000 126.326,367.000 126.000 C 367.000 125.817,367.075 125.667,367.167 125.667 C 367.258 125.667,367.333 125.292,367.333 124.833 C 367.333 124.375,367.405 124.000,367.492 124.000 C 367.580 124.000,367.701 123.737,367.761 123.417 C 367.821 123.096,367.937 122.833,368.019 122.833 C 368.100 122.833,368.167 122.721,368.167 122.583 C 368.167 122.446,368.237 122.333,368.322 122.333 C 368.408 122.333,368.527 122.176,368.589 121.984 C 368.650 121.791,368.973 121.346,369.308 120.995 C 369.643 120.644,370.179 120.043,370.500 119.660 C 370.821 119.277,371.181 118.878,371.300 118.773 C 371.419 118.669,371.606 118.485,371.716 118.366 C 371.827 118.246,372.123 117.925,372.375 117.652 C 372.627 117.379,372.833 117.110,372.833 117.055 C 372.833 117.001,372.967 116.834,373.129 116.686 C 373.292 116.538,373.566 116.192,373.739 115.917 C 373.911 115.642,374.153 115.357,374.276 115.283 C 374.399 115.210,374.500 115.022,374.500 114.865 C 374.500 114.708,374.643 114.491,374.818 114.381 C 374.993 114.272,375.187 113.954,375.248 113.675 C 375.310 113.395,375.429 113.167,375.513 113.167 C 375.598 113.167,375.667 113.054,375.667 112.917 C 375.667 112.779,375.733 112.667,375.815 112.667 C 375.896 112.667,376.012 112.404,376.072 112.083 C 376.133 111.763,376.235 111.500,376.300 111.500 C 376.516 111.500,376.821 110.597,376.935 109.620 C 376.996 109.091,377.111 108.617,377.190 108.569 C 377.377 108.453,377.377 104.333,377.190 104.333 C 377.111 104.333,377.003 103.910,376.950 103.393 C 376.896 102.876,376.773 102.373,376.676 102.276 C 376.579 102.179,376.500 101.965,376.500 101.800 C 376.500 101.635,376.425 101.500,376.333 101.500 C 376.242 101.500,376.167 101.403,376.167 101.285 C 376.167 101.028,374.965 99.667,374.738 99.667 C 374.651 99.667,374.491 99.523,374.381 99.348 C 374.272 99.173,373.954 98.980,373.675 98.918 C 373.395 98.857,373.167 98.738,373.167 98.653 C 373.167 98.569,372.994 98.500,372.783 98.500 C 372.572 98.500,372.308 98.408,372.196 98.296 C 371.987 98.087,368.012 97.941,367.167 98.111 M385.500 98.112 C 385.271 98.158,385.012 98.264,384.925 98.347 C 384.838 98.431,384.594 98.500,384.383 98.500 C 384.172 98.500,384.000 98.567,384.000 98.649 C 384.000 98.730,383.801 98.847,383.557 98.908 C 382.541 99.163,380.500 101.778,380.500 102.824 C 380.500 103.013,380.433 103.167,380.352 103.167 C 379.962 103.167,379.690 107.240,380.029 108.005 L 380.248 108.500 382.791 108.500 L 385.333 108.500 385.333 106.833 C 385.333 105.833,385.400 105.167,385.500 105.167 C 385.592 105.167,385.667 105.011,385.667 104.821 C 385.667 104.632,385.760 104.372,385.875 104.244 C 385.990 104.116,386.180 103.896,386.298 103.756 C 386.749 103.219,388.361 103.415,389.058 104.091 L 389.667 104.683 389.667 107.425 C 389.667 109.142,389.604 110.167,389.500 110.167 C 389.408 110.167,389.333 110.279,389.333 110.417 C 389.333 110.554,389.263 110.667,389.178 110.667 C 389.092 110.667,388.975 110.815,388.918 110.996 C 388.840 111.242,388.606 111.352,387.986 111.434 C 387.531 111.495,387.119 111.609,387.070 111.689 C 387.021 111.768,386.497 111.833,385.907 111.833 L 384.833 111.833 384.833 114.314 C 384.833 117.187,384.692 116.994,386.792 116.998 C 387.485 116.999,388.000 117.071,388.000 117.167 C 388.000 117.258,388.150 117.333,388.333 117.333 C 388.672 117.333,389.333 117.875,389.333 118.153 C 389.333 118.237,389.425 118.336,389.538 118.374 C 389.691 118.425,389.741 119.362,389.738 122.131 C 389.733 126.065,389.632 126.500,388.724 126.500 C 388.601 126.500,388.500 126.575,388.500 126.667 C 388.500 126.907,387.113 126.872,386.627 126.620 C 386.128 126.361,385.667 125.916,385.667 125.692 C 385.667 125.602,385.591 125.503,385.499 125.472 C 385.403 125.440,385.284 124.389,385.223 123.041 L 385.115 120.667 382.482 120.667 L 379.848 120.667 379.736 121.267 C 379.457 122.753,379.928 127.333,380.359 127.333 C 380.421 127.333,380.521 127.633,380.583 128.000 C 380.645 128.367,380.764 128.667,380.848 128.667 C 380.932 128.667,381.000 128.745,381.000 128.840 C 381.000 129.037,381.139 129.213,382.100 130.235 C 382.476 130.635,382.945 131.013,383.142 131.075 C 383.339 131.138,383.500 131.259,383.500 131.345 C 383.500 131.430,383.681 131.500,383.903 131.500 C 384.124 131.500,384.337 131.594,384.375 131.708 C 384.428 131.866,385.254 131.917,387.750 131.917 C 390.246 131.917,391.073 131.866,391.125 131.708 C 391.163 131.594,391.376 131.500,391.597 131.500 C 391.819 131.500,392.000 131.430,392.000 131.345 C 392.000 131.259,392.163 131.138,392.361 131.074 C 392.829 130.926,394.259 129.496,394.408 129.028 C 394.471 128.829,394.592 128.667,394.678 128.667 C 394.763 128.667,394.833 128.485,394.833 128.264 C 394.833 128.042,394.911 127.835,395.006 127.803 C 395.102 127.772,395.225 127.203,395.281 126.540 C 395.336 125.876,395.446 125.333,395.524 125.333 C 395.603 125.333,395.667 123.908,395.667 122.167 C 395.667 120.425,395.602 119.000,395.524 119.000 C 395.445 119.000,395.332 118.531,395.272 117.958 C 395.212 117.385,395.089 116.892,394.998 116.861 C 394.908 116.831,394.833 116.699,394.833 116.569 C 394.833 116.440,394.758 116.333,394.667 116.333 C 394.575 116.333,394.500 116.213,394.500 116.065 C 394.500 115.771,393.123 114.333,392.841 114.333 C 392.403 114.333,392.742 113.826,393.458 113.410 C 393.756 113.237,394.000 112.998,394.000 112.881 C 394.000 112.763,394.074 112.667,394.163 112.667 C 394.253 112.667,394.374 112.479,394.432 112.250 C 394.489 112.021,394.603 111.833,394.685 111.833 C 394.766 111.833,394.833 111.690,394.833 111.514 C 394.833 111.338,394.927 111.163,395.042 111.125 C 395.201 111.072,395.250 110.080,395.250 106.917 C 395.250 103.754,395.201 102.761,395.042 102.708 C 394.927 102.670,394.833 102.458,394.833 102.236 C 394.833 102.015,394.766 101.833,394.685 101.833 C 394.603 101.833,394.489 101.646,394.432 101.417 C 394.374 101.188,394.253 101.000,394.163 101.000 C 394.074 101.000,394.000 100.920,394.000 100.821 C 394.000 100.655,393.901 100.518,393.383 99.964 C 393.019 99.575,392.683 99.333,392.507 99.333 C 392.411 99.333,392.333 99.262,392.333 99.174 C 392.333 99.087,392.071 98.966,391.750 98.906 C 391.429 98.845,391.167 98.730,391.167 98.648 C 391.167 98.567,391.032 98.500,390.867 98.500 C 390.702 98.500,390.473 98.406,390.358 98.292 C 390.146 98.079,386.370 97.940,385.500 98.112 M21.833 115.000 L 21.833 131.500 24.550 131.500 C 26.441 131.500,27.327 131.439,27.467 131.300 C 27.615 131.151,27.667 129.478,27.667 124.800 L 27.667 118.500 29.833 118.500 C 31.167 118.500,32.000 118.436,32.000 118.333 C 32.000 118.242,32.183 118.167,32.407 118.167 C 32.631 118.167,32.856 118.097,32.909 118.013 C 32.961 117.928,33.228 117.810,33.502 117.750 C 33.776 117.689,34.000 117.571,34.000 117.487 C 34.000 117.402,34.080 117.333,34.179 117.333 C 34.277 117.333,34.462 117.240,34.589 117.125 C 34.993 116.763,35.244 116.523,35.450 116.300 C 35.561 116.181,35.748 115.993,35.867 115.883 C 36.245 115.533,36.500 115.186,36.500 115.021 C 36.500 114.933,36.582 114.834,36.683 114.800 C 36.784 114.767,36.906 114.385,36.955 113.953 C 37.003 113.520,37.109 113.167,37.188 113.167 C 37.268 113.167,37.333 112.867,37.333 112.500 C 37.333 112.133,37.408 111.833,37.500 111.833 C 37.605 111.833,37.667 110.667,37.667 108.667 C 37.667 106.667,37.605 105.500,37.500 105.500 C 37.408 105.500,37.333 105.125,37.333 104.667 C 37.333 104.208,37.268 103.833,37.188 103.833 C 37.108 103.833,36.994 103.529,36.935 103.158 C 36.760 102.066,34.904 99.667,34.235 99.667 C 34.106 99.667,34.000 99.592,34.000 99.500 C 34.000 99.408,33.886 99.333,33.748 99.333 C 33.609 99.333,33.365 99.262,33.206 99.174 C 32.363 98.710,30.123 98.500,26.025 98.500 L 21.833 98.500 21.833 115.000 M39.833 98.794 C 39.525 99.141,39.367 122.286,39.652 125.417 C 39.806 127.110,40.080 128.162,40.367 128.165 C 40.432 128.166,40.534 128.427,40.593 128.744 C 40.660 129.102,40.822 129.360,41.017 129.422 C 41.191 129.477,41.333 129.651,41.333 129.808 C 41.333 130.104,41.881 130.667,42.169 130.667 C 42.259 130.667,42.333 130.740,42.333 130.830 C 42.333 130.920,42.521 131.041,42.750 131.098 C 42.979 131.156,43.167 131.270,43.167 131.351 C 43.167 131.433,43.348 131.500,43.569 131.500 C 43.791 131.500,44.003 131.594,44.042 131.708 C 44.094 131.865,44.904 131.917,47.333 131.917 C 49.763 131.917,50.573 131.865,50.625 131.708 C 50.663 131.594,50.876 131.500,51.097 131.500 C 51.319 131.500,51.500 131.433,51.500 131.351 C 51.500 131.270,51.688 131.156,51.917 131.098 C 52.146 131.041,52.333 130.920,52.333 130.830 C 52.333 130.740,52.446 130.667,52.583 130.667 C 52.721 130.667,52.833 130.597,52.833 130.511 C 52.833 130.426,52.979 130.309,53.158 130.253 C 53.337 130.196,53.535 129.985,53.599 129.783 C 53.662 129.582,53.857 129.292,54.032 129.140 C 54.206 128.988,54.393 128.594,54.446 128.265 C 54.500 127.936,54.609 127.667,54.688 127.667 C 54.768 127.667,54.833 127.485,54.833 127.264 C 54.833 127.042,54.927 126.830,55.042 126.792 C 55.457 126.653,55.435 98.833,55.019 98.833 C 54.836 98.833,54.640 98.758,54.583 98.667 C 54.431 98.420,50.828 98.455,50.291 98.708 L 49.848 98.917 49.799 112.173 L 49.750 125.429 49.055 126.131 C 48.379 126.814,46.500 127.221,46.500 126.685 C 46.500 126.603,46.313 126.489,46.083 126.432 C 45.822 126.366,45.667 126.209,45.667 126.011 C 45.667 125.837,45.573 125.663,45.458 125.625 C 45.294 125.570,45.240 122.703,45.205 112.194 C 45.162 99.137,45.154 98.833,44.840 98.833 C 44.664 98.833,44.473 98.758,44.417 98.667 C 44.224 98.355,40.123 98.468,39.833 98.794 M58.917 98.667 C 58.860 98.758,58.668 98.833,58.490 98.833 C 58.172 98.833,58.167 99.110,58.167 115.167 L 58.167 131.500 60.833 131.500 L 63.500 131.500 63.500 121.333 C 63.500 111.932,63.602 109.623,63.909 112.081 C 63.972 112.583,64.093 113.038,64.178 113.091 C 64.264 113.143,64.333 113.402,64.333 113.667 C 64.333 113.931,64.398 114.187,64.478 114.236 C 64.558 114.286,64.674 114.715,64.737 115.190 C 64.800 115.666,64.995 116.351,65.170 116.713 C 65.345 117.074,65.538 117.812,65.599 118.352 C 65.660 118.892,65.775 119.333,65.855 119.333 C 65.935 119.333,66.000 119.558,66.000 119.833 C 66.000 120.108,66.065 120.333,66.145 120.333 C 66.225 120.333,66.341 120.781,66.403 121.328 C 66.465 121.875,66.587 122.367,66.674 122.421 C 66.762 122.475,66.833 122.740,66.833 123.010 C 66.833 123.279,66.902 123.500,66.987 123.500 C 67.071 123.500,67.192 123.987,67.256 124.583 C 67.320 125.179,67.438 125.667,67.519 125.667 C 67.600 125.667,67.667 125.929,67.667 126.250 C 67.667 126.571,67.736 126.833,67.820 126.833 C 67.904 126.833,68.026 127.321,68.089 127.917 C 68.153 128.512,68.272 129.000,68.353 129.000 C 68.434 129.000,68.500 129.262,68.500 129.583 C 68.500 129.904,68.575 130.167,68.667 130.167 C 68.758 130.167,68.833 130.348,68.833 130.570 C 68.833 131.509,68.804 131.500,71.894 131.500 L 74.752 131.500 74.960 131.030 C 75.123 130.662,75.159 127.123,75.126 114.835 L 75.083 99.110 74.583 98.817 C 74.015 98.484,70.606 98.361,70.417 98.667 C 70.360 98.758,70.168 98.833,69.990 98.833 C 69.674 98.833,69.667 99.025,69.667 106.750 C 69.667 111.917,69.609 114.667,69.500 114.667 C 69.408 114.667,69.333 114.404,69.333 114.083 C 69.333 113.763,69.258 113.500,69.167 113.500 C 69.075 113.500,69.000 113.237,69.000 112.917 C 69.000 112.596,68.930 112.333,68.845 112.333 C 68.760 112.333,68.639 111.921,68.576 111.417 C 68.513 110.912,68.395 110.500,68.314 110.500 C 68.233 110.500,68.167 110.237,68.167 109.917 C 68.167 109.596,68.099 109.333,68.017 109.333 C 67.935 109.333,67.814 108.808,67.750 108.166 C 67.685 107.524,67.565 106.957,67.483 106.906 C 67.401 106.855,67.333 106.593,67.333 106.323 C 67.333 106.054,67.266 105.833,67.183 105.833 C 67.100 105.833,66.980 105.383,66.917 104.833 C 66.853 104.283,66.733 103.791,66.650 103.740 C 66.568 103.689,66.500 103.476,66.500 103.268 C 66.500 103.059,66.445 102.834,66.378 102.766 C 66.270 102.659,66.020 101.714,65.724 100.292 C 65.672 100.040,65.562 99.833,65.481 99.833 C 65.400 99.833,65.333 99.627,65.332 99.375 C 65.330 98.630,64.793 98.500,61.727 98.500 C 60.102 98.500,58.978 98.567,58.917 98.667 M76.833 101.083 L 76.833 103.667 79.333 103.667 L 81.833 103.667 81.833 117.345 C 81.833 128.978,81.869 131.059,82.071 131.262 C 82.258 131.449,82.889 131.500,84.988 131.500 L 87.667 131.500 87.667 117.847 C 87.667 110.338,87.712 104.075,87.768 103.930 C 87.854 103.705,88.256 103.667,90.518 103.667 L 93.167 103.667 93.167 101.321 C 93.167 98.159,94.184 98.500,84.762 98.500 L 76.833 98.500 76.833 101.083 M95.103 98.759 C 94.969 99.107,94.965 130.881,95.098 131.228 C 95.192 131.474,95.892 131.500,102.351 131.500 L 109.500 131.500 109.500 128.917 L 109.500 126.333 105.066 126.333 C 101.090 126.333,100.641 126.306,100.732 126.070 C 100.788 125.925,100.833 123.825,100.833 121.403 L 100.833 117.000 103.875 116.998 C 108.081 116.995,107.667 117.288,107.667 114.314 L 107.667 111.833 104.405 111.833 C 102.011 111.833,101.091 111.778,100.946 111.625 C 100.808 111.478,100.750 110.336,100.750 107.750 C 100.750 105.164,100.808 104.022,100.946 103.875 C 101.093 103.719,102.194 103.667,105.321 103.667 L 109.500 103.667 109.500 101.083 L 109.500 98.500 102.351 98.500 C 96.035 98.500,95.191 98.530,95.103 98.759 M112.083 98.817 L 111.583 99.110 111.541 115.066 C 111.504 128.739,111.533 131.056,111.737 131.261 C 111.924 131.447,112.529 131.500,114.488 131.500 L 117.000 131.500 117.000 121.333 C 117.000 114.667,117.057 111.167,117.167 111.167 C 117.258 111.167,117.333 111.429,117.333 111.750 C 117.333 112.071,117.408 112.333,117.500 112.333 C 117.592 112.333,117.667 112.516,117.667 112.740 C 117.667 112.964,117.733 113.188,117.814 113.238 C 117.895 113.288,118.013 113.816,118.077 114.413 C 118.141 115.009,118.262 115.539,118.346 115.591 C 118.431 115.644,118.500 115.944,118.500 116.260 C 118.500 116.575,118.568 116.833,118.650 116.833 C 118.733 116.833,118.853 117.283,118.917 117.834 C 118.981 118.384,119.100 118.876,119.183 118.927 C 119.266 118.978,119.333 119.236,119.333 119.500 C 119.333 119.764,119.400 120.021,119.481 120.071 C 119.561 120.121,119.679 120.576,119.743 121.081 C 119.806 121.587,119.927 122.000,120.012 122.000 C 120.097 122.000,120.167 122.263,120.167 122.583 C 120.167 122.904,120.232 123.167,120.312 123.167 C 120.392 123.167,120.508 123.614,120.570 124.162 C 120.631 124.709,120.754 125.201,120.841 125.255 C 120.928 125.309,121.000 125.532,121.000 125.750 C 121.000 125.968,121.066 126.188,121.147 126.238 C 121.228 126.288,121.346 126.741,121.409 127.245 C 121.472 127.749,121.593 128.205,121.678 128.257 C 121.764 128.310,121.833 128.524,121.833 128.732 C 121.833 128.941,121.890 129.166,121.958 129.234 C 122.027 129.301,122.158 129.820,122.250 130.387 L 122.417 131.417 125.459 131.462 L 128.500 131.508 128.500 115.170 C 128.500 99.110,128.495 98.833,128.177 98.833 C 127.999 98.833,127.807 98.758,127.750 98.667 C 127.692 98.572,126.863 98.500,125.833 98.500 C 124.804 98.500,123.975 98.572,123.917 98.667 C 123.860 98.758,123.668 98.833,123.490 98.833 C 123.174 98.833,123.167 99.025,123.167 106.740 C 123.167 113.984,123.052 116.098,122.771 114.046 C 122.658 113.222,122.396 112.286,122.137 111.779 C 122.051 111.612,121.938 111.105,121.884 110.654 C 121.831 110.203,121.722 109.833,121.643 109.833 C 121.565 109.833,121.500 109.608,121.500 109.333 C 121.500 109.058,121.434 108.833,121.353 108.833 C 121.272 108.833,121.153 108.347,121.090 107.752 C 121.026 107.157,120.905 106.627,120.820 106.575 C 120.736 106.523,120.667 106.260,120.667 105.990 C 120.667 105.721,120.600 105.500,120.519 105.500 C 120.438 105.500,120.320 105.013,120.256 104.418 C 120.193 103.824,120.071 103.294,119.987 103.242 C 119.902 103.190,119.833 102.926,119.833 102.657 C 119.833 102.387,119.767 102.167,119.686 102.167 C 119.605 102.167,119.487 101.680,119.423 101.085 C 119.359 100.490,119.238 99.961,119.154 99.909 C 119.069 99.856,119.000 99.649,118.999 99.448 C 118.996 98.501,113.482 97.997,112.083 98.817 M130.375 98.749 C 130.229 98.915,130.167 99.690,130.167 101.322 L 130.167 103.658 132.792 103.704 L 135.417 103.750 135.500 117.583 L 135.583 131.417 138.375 131.462 L 141.167 131.508 141.167 117.825 C 141.167 106.189,141.202 104.107,141.405 103.905 C 141.589 103.720,142.189 103.667,144.071 103.667 L 146.500 103.667 146.500 101.083 L 146.500 98.500 138.542 98.506 C 131.882 98.512,130.549 98.551,130.375 98.749 M148.611 98.611 C 148.550 98.672,148.500 106.097,148.500 115.111 L 148.500 131.500 155.833 131.500 L 163.167 131.500 163.167 128.917 L 163.167 126.333 158.750 126.333 L 154.333 126.333 154.333 121.667 L 154.333 117.000 157.375 116.998 C 161.581 116.995,161.167 117.288,161.167 114.314 L 161.167 111.833 157.851 111.833 C 154.982 111.833,154.522 111.798,154.434 111.570 C 154.303 111.226,154.303 104.274,154.434 103.930 C 154.523 103.699,155.070 103.667,158.851 103.667 L 163.167 103.667 163.167 101.083 L 163.167 98.500 155.944 98.500 C 151.972 98.500,148.672 98.550,148.611 98.611 M165.500 114.999 L 165.500 131.508 168.292 131.462 L 171.083 131.417 171.127 124.520 L 171.170 117.624 172.531 117.743 C 174.475 117.912,175.167 118.607,175.167 120.389 C 175.167 120.817,175.242 121.167,175.333 121.167 C 175.441 121.167,175.500 122.893,175.500 126.011 C 175.500 132.100,175.153 131.500,178.673 131.500 L 181.500 131.500 181.500 130.833 C 181.500 130.467,181.433 130.167,181.351 130.167 C 181.267 130.167,181.176 127.583,181.142 124.258 C 181.098 119.820,181.032 118.298,180.875 118.142 C 180.760 118.027,180.667 117.761,180.667 117.550 C 180.667 117.339,180.601 117.167,180.521 117.167 C 180.441 117.167,180.333 116.960,180.281 116.708 C 180.174 116.185,179.120 115.007,178.500 114.717 C 178.217 114.585,178.172 114.519,178.361 114.511 C 178.655 114.499,179.833 113.442,179.833 113.190 C 179.833 113.108,179.946 112.947,180.083 112.833 C 180.221 112.719,180.333 112.485,180.333 112.313 C 180.333 112.141,180.408 112.000,180.500 112.000 C 180.592 112.000,180.667 111.819,180.667 111.597 C 180.667 111.376,180.760 111.163,180.875 111.125 C 181.160 111.030,181.170 103.895,180.886 103.314 C 180.780 103.095,180.560 102.598,180.398 102.208 C 180.235 101.819,180.042 101.500,179.968 101.500 C 179.894 101.500,179.833 101.419,179.833 101.320 C 179.833 101.055,178.610 99.891,178.193 99.758 C 177.995 99.696,177.833 99.574,177.833 99.489 C 177.833 99.403,177.646 99.333,177.417 99.333 C 177.188 99.333,177.000 99.267,177.000 99.187 C 177.000 98.838,174.401 98.598,170.042 98.545 L 165.500 98.490 165.500 114.999 M182.667 101.083 L 182.667 103.667 185.167 103.667 C 187.055 103.667,187.667 103.718,187.669 103.875 C 187.670 103.990,187.669 110.039,187.667 117.319 C 187.664 127.584,187.710 130.660,187.872 131.027 L 188.081 131.500 190.791 131.500 L 193.500 131.500 193.500 117.847 C 193.500 110.338,193.546 104.075,193.601 103.930 C 193.688 103.705,194.090 103.667,196.351 103.667 L 199.000 103.667 199.000 101.321 C 199.000 98.159,200.017 98.500,190.595 98.500 L 182.667 98.500 182.667 101.083 M203.042 98.727 C 202.835 98.829,202.667 99.040,202.667 99.196 C 202.667 99.353,202.598 99.523,202.513 99.575 C 202.429 99.627,202.307 100.419,202.242 101.335 C 202.177 102.251,202.066 103.000,201.996 103.000 C 201.926 103.000,201.829 103.281,201.781 103.625 C 201.486 105.749,201.278 106.958,201.157 107.250 C 201.016 107.590,200.996 107.713,200.628 110.529 C 200.512 111.415,200.360 112.196,200.292 112.265 C 200.223 112.333,200.167 112.747,200.167 113.185 C 200.167 113.622,200.099 114.022,200.016 114.074 C 199.932 114.125,199.811 114.881,199.746 115.753 C 199.680 116.625,199.561 117.379,199.480 117.429 C 199.399 117.479,199.333 117.928,199.333 118.427 C 199.333 118.925,199.266 119.333,199.185 119.333 C 199.103 119.333,198.982 120.083,198.917 121.000 C 198.851 121.917,198.730 122.667,198.649 122.667 C 198.567 122.667,198.500 123.042,198.500 123.500 C 198.500 123.958,198.431 124.333,198.347 124.333 C 198.263 124.333,198.141 125.158,198.076 126.167 C 198.011 127.175,197.892 128.000,197.812 128.000 C 197.732 128.000,197.667 128.371,197.667 128.823 C 197.667 129.276,197.592 129.693,197.500 129.750 C 197.408 129.807,197.333 130.224,197.333 130.677 L 197.333 131.500 199.982 131.500 C 202.839 131.500,202.833 131.502,202.833 130.580 C 202.833 130.363,202.908 130.140,203.000 130.083 C 203.092 130.027,203.167 129.577,203.167 129.083 C 203.167 128.590,203.242 128.140,203.333 128.083 C 203.425 128.027,203.500 127.695,203.500 127.347 C 203.500 126.998,203.548 126.365,203.606 125.940 L 203.712 125.167 206.255 125.167 L 208.797 125.167 208.917 126.835 C 208.982 127.752,209.103 128.544,209.185 128.595 C 209.266 128.645,209.333 129.032,209.333 129.454 C 209.333 129.876,209.460 130.509,209.615 130.861 L 209.897 131.500 212.637 131.500 L 215.376 131.500 215.257 129.792 C 215.191 128.852,215.069 128.058,214.985 128.028 C 214.902 127.997,214.833 127.528,214.833 126.986 C 214.833 126.444,214.766 126.000,214.685 126.000 C 214.603 126.000,214.482 125.250,214.417 124.333 C 214.351 123.417,214.230 122.667,214.149 122.667 C 214.067 122.667,214.000 122.292,214.000 121.833 C 214.000 121.375,213.932 121.000,213.849 121.000 C 213.767 121.000,213.645 120.211,213.579 119.247 C 213.514 118.284,213.394 117.454,213.313 117.404 C 213.233 117.354,213.167 116.943,213.167 116.490 C 213.167 116.037,213.100 115.667,213.018 115.667 C 212.936 115.667,212.816 114.916,212.750 113.999 C 212.684 113.081,212.564 112.289,212.482 112.239 C 212.400 112.188,212.333 111.776,212.333 111.323 C 212.333 110.871,212.271 110.500,212.195 110.500 C 212.119 110.500,211.968 109.731,211.858 108.792 C 211.749 107.852,211.616 106.708,211.562 106.250 C 211.509 105.792,211.409 105.342,211.339 105.250 C 211.269 105.158,211.161 104.558,211.098 103.917 C 211.036 103.275,210.918 102.487,210.836 102.167 C 210.599 101.241,210.358 100.133,210.257 99.500 C 210.113 98.594,209.724 98.497,206.342 98.520 C 204.569 98.533,203.269 98.614,203.042 98.727 M218.000 98.667 C 218.000 98.758,217.850 98.833,217.667 98.833 C 217.336 98.833,217.333 98.944,217.333 115.167 L 217.333 131.500 220.050 131.500 C 221.941 131.500,222.827 131.439,222.967 131.300 C 223.365 130.901,223.243 98.833,222.843 98.833 C 222.665 98.833,222.473 98.758,222.417 98.667 C 222.357 98.569,221.415 98.500,220.157 98.500 C 218.830 98.500,218.000 98.564,218.000 98.667 M226.750 98.667 C 226.693 98.758,226.501 98.833,226.323 98.833 C 225.923 98.833,225.801 130.901,226.200 131.300 C 226.337 131.437,227.144 131.500,228.750 131.500 C 230.356 131.500,231.163 131.437,231.300 131.300 C 231.451 131.149,231.500 128.663,231.500 121.133 C 231.500 114.600,231.557 111.167,231.667 111.167 C 231.758 111.167,231.833 111.429,231.833 111.750 C 231.833 112.071,231.900 112.333,231.981 112.333 C 232.062 112.333,232.180 112.821,232.244 113.417 C 232.308 114.013,232.429 114.500,232.513 114.500 C 232.598 114.500,232.667 114.763,232.667 115.083 C 232.667 115.404,232.733 115.667,232.814 115.667 C 232.895 115.667,233.013 116.154,233.077 116.750 C 233.141 117.346,233.262 117.833,233.347 117.833 C 233.431 117.833,233.500 118.096,233.500 118.417 C 233.500 118.737,233.566 119.000,233.647 119.000 C 233.728 119.000,233.847 119.487,233.911 120.083 C 233.974 120.679,234.096 121.167,234.180 121.167 C 234.264 121.167,234.333 121.354,234.333 121.583 C 234.333 121.813,234.401 122.000,234.483 122.000 C 234.565 122.000,234.686 122.525,234.750 123.167 C 234.814 123.808,234.935 124.333,235.017 124.333 C 235.099 124.333,235.167 124.554,235.167 124.823 C 235.167 125.093,235.233 125.355,235.314 125.405 C 235.395 125.454,235.513 125.983,235.577 126.579 C 235.641 127.175,235.762 127.706,235.846 127.758 C 235.931 127.810,236.000 128.032,236.000 128.250 C 236.000 128.468,236.065 128.687,236.145 128.736 C 236.224 128.786,236.340 129.221,236.403 129.705 C 236.465 130.188,236.606 130.790,236.715 131.042 L 236.915 131.500 239.874 131.500 L 242.833 131.500 242.833 115.167 C 242.833 99.110,242.828 98.833,242.510 98.833 C 242.332 98.833,242.140 98.758,242.083 98.667 C 241.895 98.361,238.485 98.484,237.917 98.817 L 237.417 99.110 237.333 106.930 C 237.253 114.446,237.177 115.636,236.919 113.375 C 236.854 112.802,236.733 112.291,236.650 112.240 C 236.568 112.189,236.500 111.964,236.500 111.740 C 236.500 111.516,236.433 111.333,236.350 111.333 C 236.268 111.333,236.148 110.808,236.083 110.167 C 236.019 109.525,235.899 109.000,235.816 109.000 C 235.734 109.000,235.667 108.775,235.667 108.500 C 235.667 108.225,235.599 108.000,235.517 108.000 C 235.435 108.000,235.314 107.475,235.250 106.833 C 235.186 106.192,235.065 105.667,234.983 105.667 C 234.901 105.667,234.833 105.442,234.833 105.167 C 234.833 104.892,234.766 104.667,234.684 104.667 C 234.601 104.667,234.481 104.142,234.417 103.500 C 234.352 102.858,234.232 102.333,234.150 102.333 C 234.067 102.333,234.000 102.108,234.000 101.833 C 234.000 101.558,233.933 101.333,233.850 101.333 C 233.768 101.333,233.649 100.820,233.586 100.192 C 233.473 99.072,233.460 99.046,232.846 98.776 C 232.122 98.456,226.937 98.363,226.750 98.667 M246.667 98.667 C 246.667 98.758,246.517 98.833,246.333 98.833 C 246.002 98.833,246.000 98.944,246.000 115.167 L 246.000 131.500 248.500 131.500 L 251.000 131.500 251.000 121.427 C 251.000 111.773,251.151 108.782,251.424 113.002 C 251.490 114.013,251.609 114.881,251.688 114.930 C 251.768 114.979,251.833 115.428,251.833 115.927 C 251.833 116.425,251.901 116.833,251.984 116.833 C 252.066 116.833,252.188 117.696,252.254 118.750 C 252.319 119.804,252.439 120.667,252.520 120.667 C 252.601 120.667,252.667 121.042,252.667 121.500 C 252.667 121.958,252.733 122.333,252.813 122.333 C 252.894 122.333,253.014 123.196,253.080 124.250 C 253.146 125.304,253.267 126.167,253.350 126.167 C 253.432 126.167,253.500 126.617,253.500 127.167 C 253.500 127.717,253.564 128.167,253.643 128.167 C 253.721 128.167,253.836 128.771,253.897 129.510 C 254.069 131.565,253.973 131.500,256.850 131.500 L 259.286 131.500 259.393 130.476 C 259.452 129.912,259.500 129.162,259.500 128.809 C 259.500 128.456,259.575 128.167,259.667 128.167 C 259.759 128.167,259.833 127.722,259.833 127.167 C 259.833 126.617,259.901 126.167,259.984 126.167 C 260.067 126.167,260.188 125.379,260.254 124.417 C 260.319 123.454,260.439 122.667,260.520 122.667 C 260.601 122.667,260.667 122.259,260.667 121.760 C 260.667 121.261,260.735 120.811,260.819 120.759 C 260.903 120.707,261.026 119.838,261.091 118.829 C 261.156 117.819,261.275 116.953,261.355 116.903 C 261.435 116.854,261.500 116.443,261.500 115.990 C 261.500 115.537,261.565 115.167,261.645 115.167 C 261.725 115.167,261.844 114.342,261.909 113.333 C 262.185 109.074,262.333 111.923,262.333 121.500 L 262.333 131.500 265.083 131.500 L 267.833 131.500 267.833 115.167 C 267.833 99.110,267.828 98.833,267.510 98.833 C 267.332 98.833,267.140 98.758,267.083 98.667 C 267.020 98.565,265.720 98.500,263.740 98.500 C 261.691 98.500,260.500 98.561,260.500 98.667 C 260.500 98.758,260.359 98.833,260.186 98.833 C 259.810 98.833,259.672 99.264,259.669 100.448 C 259.668 100.924,259.592 101.360,259.500 101.417 C 259.408 101.473,259.333 101.965,259.333 102.510 C 259.333 103.054,259.267 103.500,259.187 103.500 C 259.106 103.500,258.986 104.438,258.920 105.583 C 258.854 106.729,258.732 107.667,258.650 107.667 C 258.567 107.667,258.500 108.117,258.500 108.667 C 258.500 109.217,258.432 109.667,258.350 109.667 C 258.267 109.667,258.146 110.529,258.080 111.583 C 258.014 112.638,257.894 113.500,257.813 113.500 C 257.733 113.500,257.667 113.950,257.667 114.500 C 257.667 115.056,257.593 115.500,257.500 115.500 C 257.408 115.500,257.333 115.789,257.333 116.142 C 257.333 117.392,257.116 119.333,256.976 119.333 C 256.897 119.333,256.833 118.888,256.833 118.343 C 256.833 117.799,256.758 117.307,256.667 117.250 C 256.575 117.193,256.500 116.701,256.500 116.157 C 256.500 115.612,256.435 115.167,256.355 115.167 C 256.275 115.167,256.156 114.342,256.091 113.335 C 256.025 112.327,255.903 111.460,255.819 111.408 C 255.735 111.356,255.667 110.868,255.667 110.323 C 255.667 109.774,255.592 109.333,255.500 109.333 C 255.408 109.333,255.331 108.940,255.327 108.458 C 255.324 107.977,255.170 106.796,254.986 105.833 C 254.801 104.871,254.564 103.277,254.459 102.292 C 254.353 101.306,254.207 100.500,254.134 100.500 C 254.060 100.500,254.000 100.125,254.000 99.667 C 254.000 98.944,253.956 98.833,253.667 98.833 C 253.483 98.833,253.333 98.758,253.333 98.667 C 253.333 98.561,252.111 98.500,250.000 98.500 C 247.889 98.500,246.667 98.561,246.667 98.667 M271.000 115.000 L 271.000 131.500 278.338 131.500 L 285.675 131.500 285.629 128.958 L 285.583 126.417 281.208 126.372 L 276.833 126.328 276.833 121.664 L 276.833 117.000 279.875 116.998 C 284.081 116.995,283.667 117.288,283.667 114.317 L 283.667 111.840 280.292 111.795 L 276.917 111.750 276.870 108.083 C 276.844 106.067,276.864 104.248,276.914 104.042 L 277.006 103.667 281.337 103.667 L 285.667 103.667 285.667 101.283 C 285.667 99.652,285.604 98.837,285.467 98.700 C 285.317 98.551,283.459 98.500,278.133 98.500 L 271.000 98.500 271.000 115.000 M288.417 98.667 C 288.360 98.758,288.168 98.833,287.990 98.833 C 287.672 98.833,287.667 99.110,287.667 115.167 L 287.667 131.500 290.179 131.500 C 292.133 131.500,292.743 131.447,292.929 131.262 C 293.130 131.061,293.167 129.488,293.167 121.169 C 293.167 114.641,293.223 111.348,293.333 111.417 C 293.425 111.473,293.500 111.778,293.500 112.093 C 293.500 112.409,293.570 112.667,293.655 112.667 C 293.740 112.667,293.861 113.080,293.924 113.586 C 293.987 114.091,294.105 114.545,294.186 114.595 C 294.267 114.645,294.333 114.907,294.333 115.177 C 294.333 115.446,294.400 115.667,294.481 115.667 C 294.562 115.667,294.680 116.154,294.744 116.750 C 294.808 117.346,294.929 117.833,295.013 117.833 C 295.098 117.833,295.167 118.096,295.167 118.417 C 295.167 118.737,295.233 119.000,295.314 119.000 C 295.395 119.000,295.513 119.487,295.577 120.083 C 295.641 120.679,295.762 121.167,295.847 121.167 C 295.931 121.167,296.000 121.429,296.000 121.750 C 296.000 122.071,296.066 122.333,296.147 122.333 C 296.228 122.333,296.347 122.821,296.411 123.417 C 296.474 124.013,296.596 124.500,296.680 124.500 C 296.764 124.500,296.833 124.763,296.833 125.083 C 296.833 125.404,296.900 125.667,296.981 125.667 C 297.062 125.667,297.180 126.154,297.244 126.750 C 297.308 127.346,297.429 127.833,297.513 127.833 C 297.598 127.833,297.667 128.096,297.667 128.417 C 297.667 128.737,297.738 129.000,297.825 129.000 C 297.912 129.000,298.034 129.450,298.097 130.000 C 298.159 130.550,298.275 131.000,298.355 131.000 C 298.435 131.000,298.500 131.114,298.500 131.254 C 298.500 131.473,298.900 131.502,301.458 131.462 L 304.417 131.417 304.459 115.125 C 304.501 99.081,304.497 98.833,304.177 98.833 C 303.999 98.833,303.807 98.758,303.750 98.667 C 303.691 98.571,302.835 98.500,301.750 98.500 C 300.665 98.500,299.809 98.571,299.750 98.667 C 299.693 98.758,299.501 98.833,299.323 98.833 C 299.008 98.833,299.000 99.025,299.000 106.750 C 299.000 114.205,298.868 116.338,298.583 113.500 C 298.519 112.858,298.399 112.333,298.316 112.333 C 298.234 112.333,298.167 112.108,298.167 111.833 C 298.167 111.558,298.099 111.333,298.017 111.333 C 297.935 111.333,297.814 110.808,297.750 110.167 C 297.686 109.525,297.565 109.000,297.483 109.000 C 297.401 109.000,297.333 108.775,297.333 108.500 C 297.333 108.225,297.266 108.000,297.184 108.000 C 297.101 108.000,296.981 107.475,296.917 106.833 C 296.852 106.192,296.732 105.667,296.650 105.667 C 296.567 105.667,296.500 105.442,296.500 105.167 C 296.500 104.892,296.433 104.667,296.350 104.667 C 296.268 104.667,296.148 104.142,296.083 103.500 C 296.019 102.858,295.899 102.333,295.816 102.333 C 295.734 102.333,295.667 102.108,295.667 101.833 C 295.667 101.558,295.603 101.333,295.526 101.333 C 295.449 101.333,295.318 100.832,295.235 100.220 C 295.014 98.599,294.851 98.528,291.302 98.512 C 289.613 98.505,288.479 98.566,288.417 98.667 M306.333 101.082 L 306.333 103.667 308.816 103.667 C 310.925 103.667,311.313 103.706,311.399 103.930 C 311.454 104.075,311.500 110.338,311.500 117.847 L 311.500 131.500 314.217 131.500 C 316.107 131.500,316.994 131.439,317.133 131.300 C 317.286 131.148,317.333 127.830,317.333 117.383 L 317.333 103.667 320.004 103.667 L 322.675 103.667 322.629 101.125 L 322.583 98.583 314.458 98.540 L 306.333 98.497 306.333 101.082 M352.352 103.873 C 352.438 104.026,352.637 104.280,352.795 104.438 C 353.171 104.814,353.249 125.334,352.875 125.458 C 352.760 125.497,352.667 125.602,352.667 125.692 C 352.667 125.916,352.206 126.361,351.706 126.620 C 351.220 126.872,349.833 126.907,349.833 126.667 C 349.833 126.575,349.732 126.500,349.609 126.500 C 349.485 126.500,349.204 126.344,348.984 126.153 L 348.583 125.805 348.583 115.187 L 348.583 104.568 349.009 104.142 C 349.730 103.421,351.997 103.239,352.352 103.873 M29.333 103.833 C 29.333 103.925,29.601 104.000,29.929 104.000 C 30.256 104.000,30.628 104.094,30.756 104.208 C 30.884 104.323,31.104 104.513,31.244 104.632 C 31.416 104.776,31.500 105.142,31.500 105.747 C 31.500 106.242,31.575 106.693,31.667 106.750 C 31.761 106.809,31.833 107.641,31.833 108.677 C 31.833 109.781,31.768 110.500,31.667 110.500 C 31.575 110.500,31.500 110.875,31.500 111.333 C 31.500 112.687,30.799 113.167,28.822 113.167 L 27.667 113.167 27.667 108.417 L 27.667 103.667 28.500 103.667 C 28.958 103.667,29.333 103.742,29.333 103.833 M173.000 103.833 C 173.000 103.925,173.225 104.000,173.500 104.000 C 173.775 104.000,174.000 104.070,174.000 104.155 C 174.000 104.240,174.169 104.334,174.375 104.363 C 174.616 104.398,174.769 104.551,174.803 104.792 C 174.833 104.998,174.926 105.167,175.012 105.167 C 175.285 105.167,175.204 110.374,174.922 110.940 C 174.443 111.900,173.914 112.193,172.479 112.291 L 171.167 112.381 171.167 108.135 C 171.167 105.800,171.217 103.839,171.278 103.778 C 171.456 103.600,173.000 103.650,173.000 103.833 M206.490 109.542 C 206.496 109.977,206.575 110.333,206.667 110.333 C 206.759 110.333,206.833 110.778,206.833 111.333 C 206.833 111.883,206.899 112.333,206.980 112.333 C 207.061 112.333,207.181 113.271,207.247 114.417 C 207.313 115.563,207.434 116.500,207.517 116.500 C 207.599 116.500,207.667 116.950,207.667 117.500 C 207.667 118.056,207.741 118.500,207.833 118.500 C 207.925 118.500,208.000 118.875,208.000 119.333 L 208.000 120.167 206.200 120.167 L 204.401 120.167 204.470 119.042 C 204.509 118.423,204.606 117.892,204.687 117.861 C 204.767 117.831,204.833 117.404,204.833 116.913 C 204.833 116.421,204.900 115.978,204.981 115.928 C 205.063 115.878,205.184 114.936,205.250 113.835 C 205.316 112.734,205.437 111.833,205.518 111.833 C 205.600 111.833,205.667 111.308,205.667 110.667 C 205.667 110.000,205.738 109.500,205.833 109.500 C 205.925 109.500,206.000 109.100,206.000 108.611 C 206.000 108.122,206.056 107.666,206.125 107.597 C 206.281 107.440,206.478 108.489,206.490 109.542 M0.000 141.417 L 0.000 148.167 200.000 148.167 L 400.000 148.167 400.000 141.417 L 400.000 134.667 200.000 134.667 L 0.000 134.667 0.000 141.417 " stroke="none" fill="#040404" fill-rule="evenodd"></path><path id="path2" d="M72.333 78.291 C 267.717 78.404,399.500 78.404,399.500 78.292 C 399.500 78.223,309.594 78.185,199.708 78.208 C 89.823 78.231,32.504 78.268,72.333 78.291 M399.333 84.500 C 399.333 84.611,332.569 84.681,199.625 84.708 L -0.083 84.750 199.708 84.792 C 377.208 84.829,399.500 84.805,399.500 84.583 C 399.500 84.446,399.462 84.333,399.417 84.333 C 399.371 84.333,399.333 84.408,399.333 84.500 " stroke="none" fill="#1c0427" fill-rule="evenodd"></path><path id="path3" d="M399.402 81.417 C 399.402 83.067,399.427 83.719,399.458 82.867 C 399.488 82.014,399.488 80.664,399.457 79.867 C 399.427 79.069,399.402 79.767,399.402 81.417 M-0.000 84.542 C -0.000 84.610,89.869 84.648,199.708 84.625 C 309.548 84.602,366.867 84.565,327.083 84.542 C 131.934 84.429,-0.000 84.429,-0.000 84.542 " stroke="none" fill="#340c44" fill-rule="evenodd"></path><path id="path4" d="M99.889 78.125 C 154.873 78.148,244.798 78.148,299.722 78.125 C 354.646 78.102,309.658 78.083,199.750 78.083 C 89.842 78.083,44.904 78.102,99.889 78.125 M99.889 84.958 C 154.873 84.981,244.798 84.981,299.722 84.958 C 354.646 84.935,309.658 84.916,199.750 84.916 C 89.842 84.916,44.904 84.935,99.889 84.958 " stroke="none" fill="#0c081c" fill-rule="evenodd"></path></g></svg>