<?xml version="1.0" encoding="UTF-8"?>
<!DOCTYPE svg PUBLIC "-//W3C//DTD SVG 1.1//EN" "http://www.w3.org/Graphics/SVG/1.1/DTD/svg11.dtd">
<svg xmlns="http://www.w3.org/2000/svg" version="1.1" width="1500px" height="600px" style="shape-rendering:geometricPrecision; text-rendering:geometricPrecision; image-rendering:optimizeQuality; fill-rule:evenodd; clip-rule:evenodd" xmlns:xlink="http://www.w3.org/1999/xlink">
<g><path style="opacity:0.768" fill="#650f3b" d="M 249.5,46.5 C 249.5,49.1667 249.5,51.8333 249.5,54.5C 247.846,56.5597 246.846,59.0597 246.5,62C 164.834,62.5 83.1673,62.6667 1.5,62.5C 1.19767,59.6275 0.531006,56.9608 -0.5,54.5C -0.5,51.8333 -0.5,49.1667 -0.5,46.5C 0.468218,44.3926 0.801552,42.0593 0.5,39.5C 82.8333,39.5 165.167,39.5 247.5,39.5C 246.99,42.3878 247.656,44.7211 249.5,46.5 Z"/></g>
<g><path style="opacity:1" fill="#eadddd" d="M 60.5,47.5 C 60.8212,45.9519 61.8212,45.2852 63.5,45.5C 63.5,44.5 63.5,43.5 63.5,42.5C 64.5,42.5 65.5,42.5 66.5,42.5C 66.5,43.5 66.5,44.5 66.5,45.5C 68.5,45.5 70.5,45.5 72.5,45.5C 72.5,46.5 72.5,47.5 72.5,48.5C 70.5,48.5 68.5,48.5 66.5,48.5C 66.5,50.1667 66.5,51.8333 66.5,53.5C 68.604,53.2011 70.604,53.5344 72.5,54.5C 72.2907,55.086 71.9574,55.586 71.5,56C 65.3948,57.4033 62.3948,54.9033 62.5,48.5C 61.8165,48.1373 61.1499,47.8039 60.5,47.5 Z"/></g>
<g><path style="opacity:1" fill="#ebe0df" d="M 112.5,53.5 C 112.126,55.9497 110.626,56.9497 108,56.5C 105.966,56.6464 104.299,55.9797 103,54.5C 102.764,51.7916 101.931,49.2916 100.5,47C 101.707,45.6998 102.374,44.1998 102.5,42.5C 103.5,42.5 104.5,42.5 105.5,42.5C 105.5,43.5 105.5,44.5 105.5,45.5C 113.5,46.1667 113.5,46.8333 105.5,47.5C 105.5,49.5 105.5,51.5 105.5,53.5C 107.833,53.5 110.167,53.5 112.5,53.5 Z"/></g>
<g><path style="opacity:1" fill="#f2ebe8" d="M 234.5,54.5 C 234.5,52.1667 234.5,49.8333 234.5,47.5C 233.5,47.5 232.5,47.5 231.5,47.5C 231.821,45.9519 232.821,45.2852 234.5,45.5C 235.167,41.5 235.833,41.5 236.5,45.5C 245.833,46.1667 245.833,46.8333 236.5,47.5C 236.5,49.5 236.5,51.5 236.5,53.5C 238.924,53.1924 241.257,53.5258 243.5,54.5C 243.291,55.086 242.957,55.586 242.5,56C 239.462,56.885 236.795,56.385 234.5,54.5 Z"/></g>
<g><path style="opacity:1" fill="#e8dcdc" d="M 60.5,47.5 C 60.5578,50.6644 61.2245,53.6644 62.5,56.5C 60.1667,56.5 57.8333,56.5 55.5,56.5C 55.955,54.6334 56.6216,52.8001 57.5,51C 57.1664,47.6077 55.4998,46.7743 52.5,48.5C 52.1667,49.3333 51.8333,50.1667 51.5,51C 52.3784,52.8001 53.045,54.6334 53.5,56.5C 47.3923,56.2256 41.3923,56.059 35.5,56C 34.2077,52.8602 32.8744,49.6935 31.5,46.5C 33.0453,45.5481 34.712,45.2148 36.5,45.5C 36.5,48.1667 36.5,50.8333 36.5,53.5C 41.8314,53.2202 42.8314,50.8869 39.5,46.5C 41.0453,45.5481 42.712,45.2148 44.5,45.5C 44.5,48.1667 44.5,50.8333 44.5,53.5C 45.8333,53.5 47.1667,53.5 48.5,53.5C 48.8399,50.8559 48.1733,48.5225 46.5,46.5C 51.4217,44.9668 56.0883,45.3001 60.5,47.5 Z"/></g>
<g><path style="opacity:1" fill="#e7d9da" d="M 75.5,45.5 C 79.0071,44.9935 82.1737,45.6602 85,47.5C 86.8697,46.2565 89.0363,45.5899 91.5,45.5C 93.5,45.6667 95.5,45.8333 97.5,46C 99.1198,49.3549 100.453,52.8549 101.5,56.5C 99.1667,56.5 96.8333,56.5 94.5,56.5C 95.7755,53.6644 96.4422,50.6644 96.5,47.5C 93.3833,46.9273 91.3833,48.094 90.5,51C 91.3784,52.8001 92.045,54.6334 92.5,56.5C 89.6062,56.9577 87.1062,56.291 85,54.5C 79.2159,58.1395 75.3825,56.8061 73.5,50.5C 73.4365,48.4861 74.1032,46.8194 75.5,45.5 Z"/></g>
<g><path style="opacity:1" fill="#e9dddd" d="M 162.5,41.5 C 163.995,41.4148 164.995,42.0815 165.5,43.5C 165.288,46.652 165.288,49.9853 165.5,53.5C 166.5,53.5 167.5,53.5 168.5,53.5C 168.307,50.6915 167.64,48.0248 166.5,45.5C 170.514,45.3345 174.514,45.5012 178.5,46C 180.278,48.1354 180.945,50.6354 180.5,53.5C 181.5,53.5 182.5,53.5 183.5,53.5C 183.307,50.6915 182.64,48.0248 181.5,45.5C 188.324,45.8003 194.991,45.9669 201.5,46C 202.326,49.5573 203.326,53.0573 204.5,56.5C 202.167,56.5 199.833,56.5 197.5,56.5C 198.776,53.6644 199.442,50.6644 199.5,47.5C 196.756,47.2003 195.089,48.367 194.5,51C 195.378,52.8001 196.045,54.6334 196.5,56.5C 194.167,56.5 191.833,56.5 189.5,56.5C 190.776,53.6644 191.442,50.6644 191.5,47.5C 188.756,47.2003 187.089,48.367 186.5,51C 187.378,52.8001 188.045,54.6334 188.5,56.5C 184.167,56.5 179.833,56.5 175.5,56.5C 175.955,54.6334 176.622,52.8001 177.5,51C 177.166,47.6077 175.5,46.7743 172.5,48.5C 172.167,49.3333 171.833,50.1667 171.5,51C 172.378,52.8001 173.045,54.6334 173.5,56.5C 162.083,56.4213 150.75,56.2546 139.5,56C 137.679,53.544 137.012,50.7107 137.5,47.5C 135.208,47.2436 133.041,47.5769 131,48.5C 130.688,51.3088 131.188,53.9755 132.5,56.5C 130.167,56.5 127.833,56.5 125.5,56.5C 126.129,54.5351 126.796,52.5351 127.5,50.5C 127.21,48.9559 126.544,47.6226 125.5,46.5C 129.445,45.5091 133.445,45.1758 137.5,45.5C 138.167,41.5 138.833,41.5 139.5,45.5C 141.833,45.5 144.167,45.5 146.5,45.5C 146.5,46.5 146.5,47.5 146.5,48.5C 144.5,48.5 142.5,48.5 140.5,48.5C 140.5,50.1667 140.5,51.8333 140.5,53.5C 145.209,52.0056 149.876,50.1723 154.5,48C 152.189,48.1554 149.856,48.1554 147.5,48C 150.431,45.3187 153.765,44.8187 157.5,46.5C 158.474,48.7427 158.808,51.076 158.5,53.5C 159.833,53.5 161.167,53.5 162.5,53.5C 162.5,51.5 162.5,49.5 162.5,47.5C 158.544,46.9473 158.544,46.1139 162.5,45C 161.316,43.8545 161.316,42.6879 162.5,41.5 Z"/></g>
<g><path style="opacity:1" fill="#f2ebe8" d="M 217.5,45.5 C 221.514,45.3345 225.514,45.5012 229.5,46C 229.846,48.9403 230.846,51.4403 232.5,53.5C 232.03,54.6935 231.03,55.3601 229.5,55.5C 227.97,55.3601 226.97,54.6935 226.5,53.5C 227.461,51.7354 227.795,49.7354 227.5,47.5C 224.412,47.367 222.412,48.7003 221.5,51.5C 221.747,52.7133 222.414,53.38 223.5,53.5C 223.03,54.6935 222.03,55.3601 220.5,55.5C 219.5,55.1667 218.5,54.8333 217.5,54.5C 218.489,53.5318 219.156,52.3651 219.5,51C 219.046,49.0614 218.379,47.228 217.5,45.5 Z"/></g>
<g><path style="opacity:1" fill="#efe7e5" d="M 112.5,53.5 C 113.093,45.4294 116.926,43.4294 124,47.5C 125.985,53.0367 124.152,56.0367 118.5,56.5C 116.045,56.3716 114.045,55.3716 112.5,53.5 Z"/></g>
<g><path style="opacity:1" fill="#f0e8e6" d="M 216.5,47.5 C 216.5,49.8333 216.5,52.1667 216.5,54.5C 210.635,58.2052 206.635,56.8719 204.5,50.5C 206.234,45.8178 209.567,44.3178 214.5,46C 215.044,46.7172 215.711,47.2172 216.5,47.5 Z"/></g>
<g><path style="opacity:0.78" fill="#7b3354" d="M 77.5,47.5 C 79.4286,47.2308 81.0953,47.7308 82.5,49C 80.5,49.6667 78.5,49.6667 76.5,49C 77.056,48.6174 77.3893,48.1174 77.5,47.5 Z"/></g>
<g><path style="opacity:0.78" fill="#73274a" d="M 117.5,47.5 C 119.103,47.3118 120.437,47.8118 121.5,49C 119.833,49.6667 118.167,49.6667 116.5,49C 117.056,48.6174 117.389,48.1174 117.5,47.5 Z"/></g>
<g><path style="opacity:0.78" fill="#73274a" d="M 209.5,47.5 C 211.103,47.3118 212.437,47.8118 213.5,49C 211.833,49.6667 210.167,49.6667 208.5,49C 209.056,48.6174 209.389,48.1174 209.5,47.5 Z"/></g>
<g><path style="opacity:1" fill="#e9dddd" d="M 6.5,45.5 C 13.8409,45.3337 21.1742,45.5003 28.5,46C 32.7287,49.8432 32.3954,53.1765 27.5,56C 25.5,56.3333 23.5,56.6667 21.5,57C 22.9733,57.7096 23.6399,58.8762 23.5,60.5C 21.1667,60.5 18.8333,60.5 16.5,60.5C 17.368,58.1033 18.0347,55.6033 18.5,53C 18.1667,51.5 17.8333,50 17.5,48.5C 16.8333,50.8333 16.1667,53.1667 15.5,55.5C 12.2423,56.4173 8.90899,56.7507 5.5,56.5C 5.14118,54.2341 5.80784,52.4007 7.5,51C 5.3652,49.4443 5.03187,47.6109 6.5,45.5 Z"/></g>
<g><path style="opacity:0.78" fill="#6b1941" d="M 23.5,47.5 C 27.6772,46.8416 29.1772,48.5082 28,52.5C 25.9592,53.4231 23.7925,53.7564 21.5,53.5C 21.2587,51.1137 21.9254,49.1137 23.5,47.5 Z"/></g>
<g><path style="opacity:0.796" fill="#854061" d="M 8.5,48.5 C 10.1849,47.156 11.8516,47.3227 13.5,49C 11.735,49.6397 10.0683,49.4731 8.5,48.5 Z"/></g>
<g><path style="opacity:0.894" fill="#a77489" d="M 115.5,51.5 C 117.924,51.1924 120.257,51.5258 122.5,52.5C 121.333,52.8333 120.167,53.1667 119,53.5C 117.319,53.3917 116.152,52.7251 115.5,51.5 Z"/></g>
<g><path style="opacity:0.894" fill="#a77489" d="M 207.5,51.5 C 209.924,51.1924 212.257,51.5258 214.5,52.5C 213.333,52.8333 212.167,53.1667 211,53.5C 209.319,53.3917 208.152,52.7251 207.5,51.5 Z"/></g>
<g><path style="opacity:0.78" fill="#702147" d="M 8.5,51.5 C 10.5643,51.687 12.5643,52.187 14.5,53C 13.5,53.1667 12.5,53.3333 11.5,53.5C 9.97041,53.3601 8.97041,52.6935 8.5,51.5 Z"/></g>
<g><path style="opacity:0.808" fill="#76284e" d="M 85.5,48.5 C 86.6491,48.7911 87.3158,49.6244 87.5,51C 87.1667,51.8333 86.8333,52.6667 86.5,53.5C 85.5481,51.9547 85.2148,50.288 85.5,48.5 Z"/></g>
<g><path style="opacity:0.78" fill="#712248" d="M 150.5,51.5 C 152.288,51.2148 153.955,51.5481 155.5,52.5C 153.579,53.641 151.579,53.8077 149.5,53C 150.056,52.6174 150.389,52.1174 150.5,51.5 Z"/></g>
<g><path style="opacity:0.871" fill="#a8768c" d="M 217.5,45.5 C 218.379,47.228 219.046,49.0614 219.5,51C 219.156,52.3651 218.489,53.5318 217.5,54.5C 218.5,54.8333 219.5,55.1667 220.5,55.5C 222.03,55.3601 223.03,54.6935 223.5,53.5C 224.404,54.209 224.737,55.209 224.5,56.5C 221.302,57.0356 218.635,56.369 216.5,54.5C 216.5,52.1667 216.5,49.8333 216.5,47.5C 216.328,46.5084 216.662,45.8417 217.5,45.5 Z"/></g>
<g><path style="opacity:0.916" fill="#b88fa0" d="M 231.5,47.5 C 232.5,47.5 233.5,47.5 234.5,47.5C 234.5,49.8333 234.5,52.1667 234.5,54.5C 231.855,56.2419 228.855,56.9086 225.5,56.5C 225.263,55.209 225.596,54.209 226.5,53.5C 226.97,54.6935 227.97,55.3601 229.5,55.5C 231.03,55.3601 232.03,54.6935 232.5,53.5C 233.843,51.3166 233.51,49.3166 231.5,47.5 Z"/></g>
</svg>
